<?xml version="1.0" standalone="no"?>
<!DOCTYPE svg PUBLIC "-//W3C//DTD SVG 20010904//EN"
 "http://www.w3.org/TR/2001/REC-SVG-20010904/DTD/svg10.dtd">
<svg version="1.0" xmlns="http://www.w3.org/2000/svg"
 width="768.000000pt" height="512.000000pt" viewBox="0 0 768.000000 512.000000"
 preserveAspectRatio="xMidYMid meet">

<g transform="translate(0.000000,512.000000) scale(0.100000,-0.100000)"
fill="#000000" stroke="none">
<path d="M3413 4811 c-37 -23 -59 -53 -69 -96 -4 -16 -12 -38 -19 -48 -11 -16
-14 -12 -24 29 -16 62 -24 51 -11 -15 13 -72 -2 -101 -24 -46 -22 52 -29 40
-11 -20 14 -46 13 -85 -3 -85 -4 0 -15 14 -24 30 -28 49 -40 34 -13 -16 41
-78 32 -120 -17 -79 -16 14 -39 25 -51 24 -21 0 -21 -1 -3 -12 50 -31 76 -60
76 -83 0 -21 -3 -24 -25 -18 -28 7 -81 -3 -70 -14 3 -4 20 -7 36 -8 42 -2 59
-21 59 -64 0 -36 -1 -37 -36 -36 -21 0 -39 -4 -41 -10 -2 -7 6 -10 22 -7 34 7
55 -13 55 -53 0 -32 -2 -34 -34 -34 -19 0 -38 -4 -41 -10 -4 -6 5 -7 23 -4 37
7 46 -6 37 -52 -5 -29 -9 -33 -20 -24 -8 6 -24 10 -37 8 -22 -4 -22 -5 -3 -13
39 -16 45 -25 33 -51 -12 -26 -23 -30 -33 -14 -3 6 -15 10 -26 10 -10 0 -19
-4 -19 -10 0 -5 9 -10 20 -10 26 0 35 -22 20 -50 -11 -20 -13 -20 -29 -6 -19
17 -41 21 -41 7 0 -5 9 -11 20 -14 21 -5 26 -32 10 -57 -7 -12 -12 -12 -22 -2
-6 6 -20 12 -30 12 -10 0 -18 5 -18 10 0 6 -10 10 -23 10 -13 0 -33 10 -45 23
l-22 23 46 12 c55 15 51 32 -6 22 -21 -4 -41 -6 -43 -4 -2 2 -2 17 1 34 5 34
28 45 72 35 18 -4 30 -3 30 4 0 15 -18 23 -55 23 -33 0 -34 1 -28 32 8 45 39
69 81 62 28 -4 33 -2 28 10 -3 9 -6 18 -6 20 0 8 -52 4 -71 -6 -45 -24 -13 76
44 138 17 19 18 22 4 22 -9 0 -26 -13 -39 -30 -12 -16 -25 -30 -29 -30 -3 0
-12 21 -18 48 -7 26 -16 63 -21 82 -9 35 -112 181 -132 189 -15 5 0 -74 24
-130 10 -25 39 -66 63 -89 42 -41 74 -104 61 -117 -3 -3 -31 3 -63 15 l-56 21
21 -22 c12 -11 41 -28 64 -37 38 -13 43 -20 46 -49 4 -37 1 -38 -70 -7 -54 23
-47 7 13 -33 45 -29 50 -36 44 -59 -4 -15 -8 -29 -10 -31 -4 -3 -32 6 -79 25
-35 14 -7 -15 36 -37 35 -18 39 -23 33 -47 -9 -37 -11 -38 -50 -19 -50 24 -55
21 -18 -12 l33 -27 -201 4 c-131 3 -204 1 -211 -6 -12 -12 7 -41 167 -257 181
-244 193 -261 337 -469 76 -110 136 -201 134 -203 -2 -2 -42 27 -89 64 -46 37
-130 99 -186 137 l-101 68 25 30 c62 74 31 157 -59 158 -16 0 -74 -15 -130
-34 -56 -18 -131 -41 -169 -51 -37 -9 -70 -21 -73 -26 -3 -5 7 -4 21 1 39 15
45 13 45 -16 0 -14 -4 -23 -10 -19 -5 3 -10 -3 -10 -13 0 -11 -2 -35 -5 -53
-5 -28 -4 -30 4 -12 9 21 51 51 51 37 0 -3 7 -1 15 6 24 20 29 5 16 -44 -6
-25 -11 -57 -10 -73 1 -27 1 -27 9 5 9 38 20 54 20 29 0 -26 13 -20 33 15 14
24 15 28 2 18 -23 -19 -42 2 -37 44 4 31 62 106 62 80 0 -6 13 -9 30 -6 18 2
27 9 23 15 -4 6 0 8 8 5 8 -3 26 1 40 9 23 13 22 14 -21 9 -40 -5 -42 -4 -20
6 35 17 36 18 21 28 -10 6 -3 11 25 19 21 6 49 11 61 11 33 0 73 -21 75 -39 0
-9 2 -23 3 -31 2 -20 -19 -62 -42 -80 -26 -22 -117 -53 -183 -63 -14 -3 -4 -5
22 -6 26 0 65 6 87 15 l39 15 123 -87 c152 -106 273 -200 317 -245 39 -40 102
-141 182 -294 51 -95 400 -892 400 -911 0 -4 -29 31 -63 77 -153 202 -353 392
-552 526 -176 119 -958 582 -1229 728 -50 27 -84 51 -76 53 8 3 34 18 58 33
25 16 51 25 60 22 12 -5 14 -2 9 11 -4 9 -3 15 2 11 5 -3 13 0 17 6 4 7 3 9
-4 5 -5 -3 -12 -2 -14 4 -4 11 -125 -59 -152 -88 -17 -20 -17 -21 24 -48 22
-15 37 -31 33 -35 -5 -5 -47 -35 -93 -66 -46 -32 -85 -63 -87 -69 -2 -6 19
-23 47 -38 l51 -28 -71 -50 c-39 -28 -76 -61 -81 -74 -5 -14 -25 -34 -44 -46
-21 -12 -34 -26 -31 -34 3 -7 -2 -18 -10 -24 -26 -22 -15 -36 39 -49 81 -21
84 -25 41 -52 -50 -31 -211 -174 -225 -201 -8 -15 -8 -22 1 -28 13 -8 149 -25
325 -40 66 -6 136 -13 155 -16 l35 -6 -28 -20 c-25 -18 -40 -47 -17 -33 6 4
22 0 35 -9 31 -20 45 -21 19 -1 -19 15 -18 15 6 36 22 18 33 20 85 15 89 -9
485 -88 480 -95 -2 -4 5 -12 15 -19 16 -10 18 -9 13 4 -4 12 0 14 18 10 171
-38 215 -49 222 -56 4 -4 -36 -25 -90 -47 -145 -60 -138 -59 -162 -19 -13 20
-19 41 -14 52 4 11 3 15 -4 11 -6 -4 -20 3 -30 15 -16 21 -24 22 -83 17 l-65
-6 65 -1 c60 -2 90 -13 90 -34 0 -4 -27 -8 -60 -8 -33 0 -60 -4 -60 -10 0 -5
-10 -10 -22 -10 -25 0 -21 -7 7 -12 11 -1 24 -7 28 -13 5 -6 6 -2 3 9 -5 14
-2 17 9 12 9 -3 13 -2 10 4 -4 6 14 10 45 10 49 0 52 -2 66 -35 18 -45 20 -43
-23 -54 -43 -12 -96 -14 -142 -5 -27 6 -30 9 -19 23 11 14 11 14 -7 0 -25 -21
-65 -9 -65 20 0 10 -7 21 -15 25 -8 3 -15 10 -15 16 0 6 -14 25 -30 43 -17 18
-28 37 -26 44 3 7 -1 10 -10 6 -11 -4 -12 -9 -4 -18 8 -10 7 -14 -7 -18 -12
-3 -10 -5 8 -6 19 -1 31 -11 45 -38 10 -21 24 -42 29 -46 6 -5 -2 -6 -17 -3
-39 9 -35 -1 5 -13 l32 -9 -30 0 c-16 0 -68 5 -115 11 -72 10 -85 15 -88 32
-2 11 -8 25 -14 30 -6 6 -7 3 -2 -10 3 -11 -6 -1 -21 22 -16 23 -38 46 -49 52
-12 6 -32 19 -46 28 -13 10 -21 13 -17 6 5 -8 -4 -13 -30 -16 -33 -3 -31 -4
12 -5 44 -2 55 -7 83 -36 37 -39 39 -46 15 -46 -17 -1 -16 -2 1 -15 10 -8 22
-12 27 -10 4 3 10 1 14 -4 3 -6 -41 -9 -117 -8 -68 0 -136 -2 -153 -6 -16 -4
-24 -4 -17 -1 6 3 10 9 7 14 -3 5 16 27 42 49 27 23 42 41 35 41 -8 0 -31 -15
-52 -33 -38 -32 -73 -43 -95 -29 -6 4 -2 -1 8 -10 17 -16 17 -18 3 -18 -10 0
-15 -4 -12 -9 10 -15 -15 -26 -99 -46 -44 -10 -87 -22 -96 -26 -23 -11 -56 0
-62 20 -2 10 -20 28 -38 40 l-34 23 35 -32 c28 -26 31 -31 13 -25 -13 3 -30 2
-39 -3 -14 -8 -12 -10 12 -17 16 -4 37 -9 47 -10 11 -1 23 -8 27 -15 7 -11 11
-11 24 -1 8 7 21 11 28 9 8 -3 2 -12 -16 -23 -20 -14 -30 -15 -35 -7 -5 9 -26
10 -77 3 -38 -4 -59 -9 -46 -10 31 -1 18 -21 -14 -21 -30 0 -75 -22 -95 -46
-13 -16 -12 -16 8 -3 30 18 41 4 16 -24 -43 -48 -34 -49 13 -1 27 28 65 60 84
71 44 24 94 38 85 23 -3 -6 3 -10 15 -10 21 0 21 -1 3 -30 -9 -16 -24 -30 -32
-30 -11 0 -10 -4 5 -14 17 -13 20 -12 27 15 4 16 12 29 17 29 5 0 12 9 15 20
9 27 22 25 27 -4 5 -23 -14 -61 -24 -50 -3 2 -8 -9 -12 -26 -3 -18 -10 -29
-16 -25 -6 4 -10 -8 -10 -29 0 -19 3 -36 8 -39 4 -2 1 -2 -5 -1 -7 2 -13 -3
-13 -11 0 -8 -4 -15 -10 -15 -5 0 -10 -8 -10 -19 0 -25 -59 -153 -68 -147 -4
2 -7 -6 -8 -17 0 -12 -4 -31 -8 -42 -5 -11 6 4 23 33 34 56 62 73 35 20 -30
-59 -54 -87 -69 -81 -11 4 -15 -3 -16 -28 -1 -32 -2 -32 -9 -9 -9 27 -8 28
-15 -35 -1 -12 -7 -30 -14 -42 -14 -28 -14 -31 4 -35 8 -2 11 -8 7 -14 -8 -14
-122 -30 -122 -17 0 4 27 37 59 72 54 58 59 67 54 98 -3 18 -9 32 -13 31 -12
-5 -186 -201 -198 -224 -20 -38 -1 -47 94 -45 107 2 555 17 824 28 107 4 242
8 300 8 l105 0 0 110 c0 61 5 124 12 140 6 17 17 59 24 94 7 39 22 75 38 95
26 31 8 22 -31 -17 -21 -20 -68 -23 -69 -4 0 6 -3 4 -7 -5 -4 -10 -36 -53 -72
-97 -62 -76 -65 -78 -71 -53 -6 24 -7 23 -8 -10 -1 -37 -62 -144 -74 -131 -4
3 -7 -1 -7 -10 0 -9 -13 -31 -30 -49 -25 -28 -31 -31 -41 -18 -9 13 -10 13 -6
-2 3 -9 -2 -23 -12 -32 -17 -16 -19 -15 -25 6 -17 65 6 260 32 277 6 4 7 12 3
20 -14 22 -99 4 -118 -26 -15 -22 -17 -23 -26 -8 -8 15 -14 12 -48 -21 -21
-21 -39 -35 -39 -32 0 3 -18 -13 -41 -35 -30 -31 -43 -37 -49 -28 -6 10 -10 8
-15 -8 -4 -12 -22 -29 -40 -38 -18 -9 -39 -28 -46 -42 l-12 -26 -7 25 c-6 24
-3 44 15 114 8 28 7 29 -20 22 -15 -4 -40 -10 -56 -13 -16 -3 -29 -12 -29 -20
0 -8 -5 -11 -10 -8 -13 8 -13 115 0 115 6 0 10 19 10 41 0 48 19 119 32 119 4
0 8 9 8 19 0 15 -5 18 -21 14 -21 -6 -21 -4 7 48 43 80 60 77 63 -13 1 -40 4
-74 6 -77 2 -2 -2 -16 -10 -30 l-14 -27 70 15 c69 14 70 15 115 78 25 35 51
63 59 63 9 0 12 6 8 16 -4 10 -13 14 -27 10 -56 -14 -111 -18 -101 -8 14 15
134 44 147 36 7 -5 9 0 6 14 -3 11 1 31 10 43 l15 22 -29 -16 c-31 -17 -104
-39 -104 -31 0 3 5 15 11 26 7 13 7 18 1 14 -6 -3 -13 2 -15 11 -3 10 -5 4 -6
-14 0 -17 -16 -55 -33 -84 l-33 -53 -3 40 c-7 76 6 118 48 159 25 24 40 34 41
25 0 -8 4 -5 9 8 8 19 69 56 78 48 5 -6 -10 -36 -17 -32 -3 2 -13 -12 -23 -31
-16 -34 -16 -34 4 -16 11 10 27 31 35 46 14 28 51 35 46 9 -2 -9 3 -9 21 0 18
8 45 7 103 -2 43 -7 86 -12 96 -12 9 1 17 -3 17 -8 0 -5 13 -7 28 -4 23 5 248
-31 260 -41 2 -2 -16 -28 -39 -59 -31 -42 -49 -56 -68 -57 -19 -1 -21 -3 -7
-6 30 -8 -58 -93 -99 -94 -23 -1 -25 -3 -7 -6 28 -6 28 -10 -5 -47 -16 -17
-18 -23 -7 -13 14 12 24 14 27 7 3 -6 4 -5 3 2 -3 14 -2 15 45 71 33 40 51 48
44 20 -3 -10 3 -1 13 20 11 21 41 63 67 94 41 47 50 53 55 38 5 -13 9 -15 14
-7 4 7 31 12 63 12 55 0 56 0 38 -20 -12 -13 -33 -20 -68 -22 l-52 -3 -7 -44
c-4 -23 -10 -52 -13 -62 -6 -16 -2 -18 26 -15 25 2 36 11 51 40 13 26 33 44
61 56 23 11 43 15 45 10 5 -14 -28 -113 -42 -125 -6 -5 -11 -21 -12 -35 0 -14
-3 -41 -7 -60 -4 -25 -2 -21 9 13 8 26 19 47 24 47 5 0 7 6 4 13 -6 17 40 139
52 138 5 -1 18 -16 29 -35 18 -31 18 -39 7 -107 -7 -40 -15 -75 -18 -78 -2 -3
-18 11 -35 30 l-31 34 32 -43 33 -43 -17 -77 c-9 -42 -19 -78 -21 -81 -9 -8
-67 53 -81 84 -7 17 -13 25 -14 18 0 -6 -10 -14 -22 -16 -23 -4 -23 -4 -1 -6
18 -1 21 -6 19 -33 -2 -18 -1 -23 1 -11 6 31 13 29 58 -17 l39 -40 -13 -52
c-20 -80 -77 -198 -95 -198 -9 0 -25 15 -36 32 l-20 33 0 -35 c0 -19 4 -30 8
-23 5 8 14 6 30 -8 14 -11 20 -23 16 -30 -4 -7 -3 -9 2 -6 6 3 20 28 33 56 15
31 32 51 45 55 24 5 305 21 641 36 127 6 286 17 354 25 69 8 125 13 126 12 0
-1 6 -14 13 -29 7 -17 22 -30 39 -34 56 -12 58 -14 34 -30 -14 -10 -21 -24
-19 -37 2 -18 11 -23 46 -25 24 -2 56 3 72 12 17 8 30 13 30 10 0 -3 -80 -101
-120 -147 -4 -4 -20 -1 -36 8 -17 9 -56 15 -96 15 -64 0 -68 -1 -68 -23 0 -32
50 -77 94 -84 21 -3 35 -11 33 -17 -2 -6 -12 -35 -21 -63 -16 -48 -20 -53 -47
-53 -37 0 -97 -25 -126 -52 -22 -20 -22 -23 -6 -40 20 -22 91 -24 119 -3 10 8
22 15 25 15 3 0 3 -28 1 -62 -4 -58 -7 -65 -53 -109 -32 -31 -51 -60 -59 -89
-6 -23 -9 -44 -7 -47 11 -11 76 28 105 63 l32 39 0 -45 c0 -45 29 -119 56
-141 17 -14 19 -13 28 26 l6 30 -14 -25 -14 -25 -26 55 c-14 30 -26 61 -26 68
0 24 19 11 44 -30 14 -24 26 -36 26 -28 0 17 -25 59 -45 75 -7 6 -16 37 -20
70 l-8 59 43 -37 c29 -24 54 -37 73 -37 27 0 29 2 22 28 -10 41 -53 91 -83 98
-55 12 -54 11 -47 67 4 28 11 70 17 91 l10 39 29 -54 c17 -29 42 -66 56 -82
23 -24 28 -25 36 -11 20 35 -34 167 -73 179 -29 9 -25 23 28 93 l47 64 16 -54
c8 -29 24 -67 34 -82 l19 -29 13 30 c6 17 29 40 49 52 l37 22 -7 -33 c-3 -18
-15 -45 -27 -61 -25 -35 -59 -113 -59 -138 0 -10 6 -19 14 -19 18 0 66 56 66
76 0 9 5 12 11 8 6 -3 8 -16 5 -27 -7 -28 12 -103 30 -118 12 -9 14 -3 14 37
-1 27 -7 60 -15 74 -8 14 -14 45 -15 70 l0 45 26 -33 c25 -32 84 -70 84 -55 0
50 -56 143 -86 143 -17 0 -18 26 -3 86 8 32 14 42 21 32 5 -8 6 -3 2 15 -3 15
-2 27 3 27 21 0 52 -48 59 -90 l7 -45 -28 25 c-24 21 -26 22 -15 4 7 -12 21
-26 31 -33 17 -10 19 -8 19 24 0 44 -20 94 -48 119 -17 14 -19 23 -11 37 19
37 43 22 68 -43 25 -66 26 -82 17 -163 l-5 -50 8 47 c5 26 13 52 17 59 14 23
34 -23 36 -80 l1 -56 6 49 6 49 43 -46 c31 -34 42 -55 43 -79 0 -27 2 -29 8
-13 7 17 13 10 42 -45 19 -36 39 -83 46 -105 7 -25 12 -32 12 -18 1 12 -12 55
-28 95 -17 40 -26 75 -20 76 5 2 -2 13 -16 24 -14 11 -25 26 -25 34 0 12 5 12
32 1 41 -17 59 -44 38 -57 -13 -8 -13 -10 2 -10 25 0 29 14 12 38 -17 25 -63
51 -85 49 -8 -1 -32 18 -54 42 -22 24 -33 42 -25 39 19 -7 50 9 50 25 0 23
-54 65 -93 72 -28 6 -41 14 -48 32 -13 35 -13 35 31 13 48 -24 60 -25 60 -4 0
12 -3 14 -13 6 -15 -13 -80 25 -97 58 -12 23 -13 60 -1 60 15 0 63 -43 82 -74
10 -17 19 -26 19 -20 0 6 -9 23 -21 38 -19 24 -18 53 2 41 5 -3 28 -9 51 -13
39 -7 42 -10 52 -52 6 -25 15 -45 21 -45 5 0 14 20 20 45 8 35 14 45 28 42 25
-5 48 -55 41 -91 -8 -40 5 -161 17 -161 6 0 15 14 21 31 16 47 29 21 32 -69 2
-44 7 -85 10 -91 11 -18 23 -4 30 35 7 34 -3 78 -50 223 -8 25 -12 46 -11 48
2 2 17 -2 34 -7 20 -8 38 -8 57 0 23 8 25 13 16 29 -5 11 -20 27 -32 35 l-22
16 22 1 c12 1 31 1 42 1 1163 0 1258 -1 1265 -22 8 -25 21 -26 27 -2 5 18 29
19 423 26 272 4 425 11 439 18 68 36 38 83 -121 188 -104 69 -134 83 -206 95
-21 3 -35 10 -32 14 9 15 -17 27 -118 56 -54 16 -100 32 -103 37 -8 12 4 10
91 -17 98 -30 115 -31 115 -5 0 11 -5 20 -11 20 -6 0 -8 9 -4 20 12 37 -28 78
-220 232 l-192 153 39 12 c43 12 88 39 88 52 0 4 -18 16 -40 26 -74 34 -60 38
104 30 131 -6 156 -5 156 7 0 18 -47 63 -97 94 l-38 23 53 1 c40 0 52 4 52 15
0 18 -86 74 -242 160 -60 33 -108 62 -108 66 0 3 57 18 128 34 70 15 131 31
136 36 5 4 -26 25 -68 46 -54 27 -75 42 -71 53 10 31 22 196 18 238 -5 41 -5
42 26 42 26 0 31 -5 41 -37 5 -21 12 -51 14 -68 3 -16 3 0 1 38 l-4 67 29 0
30 0 -6 -69 c-7 -73 20 -261 37 -261 25 0 41 181 24 280 -6 38 -5 40 18 40 24
0 24 -2 30 -97 5 -93 29 -193 47 -193 21 0 23 151 4 253 -4 19 -2 27 9 27 10
0 16 -17 19 -58 6 -62 40 -153 66 -174 13 -11 14 -5 10 62 -3 41 -12 94 -20
117 -18 51 -12 61 18 32 17 -15 40 -23 87 -26 68 -6 137 2 137 16 0 12 -82 49
-126 56 -22 4 -58 2 -79 -4 -21 -6 -41 -8 -44 -5 -3 2 12 18 32 35 60 49 134
170 96 156 -8 -2 -13 -10 -11 -17 4 -19 -71 -112 -116 -144 -31 -21 -48 -27
-67 -22 l-26 7 26 31 c14 17 37 52 50 77 25 50 67 172 61 178 -7 7 -107 -110
-127 -148 -10 -21 -24 -61 -30 -90 -10 -45 -13 -50 -33 -45 -11 3 -27 6 -34 6
-8 0 -2 20 17 58 36 72 91 232 91 263 -2 71 -137 -171 -149 -264 l-6 -52 -35
3 c-19 2 -37 6 -39 8 -2 2 8 30 23 63 28 62 81 279 71 290 -4 3 -15 -5 -25
-19 l-18 -24 -41 37 c-45 41 -110 76 -188 101 -40 13 -53 22 -53 37 0 24 3 24
81 0 186 -57 289 -71 289 -40 0 12 -76 67 -120 86 -20 9 -78 18 -137 21 -100
4 -103 5 -103 28 0 18 5 24 23 24 71 0 336 107 322 130 -9 14 -120 12 -188 -4
-51 -12 -145 -61 -135 -71 2 -2 26 7 53 20 62 30 140 47 197 43 l43 -3 -66
-32 c-72 -35 -155 -60 -209 -65 l-35 -3 0 50 c0 46 2 50 30 59 45 15 172 105
206 145 36 44 38 65 7 55 -67 -20 -220 -120 -239 -155 -11 -21 -29 -17 -29 7
0 7 37 51 83 96 74 75 139 170 124 184 -17 17 -148 -99 -178 -158 -30 -58 -22
-59 11 -1 28 48 118 133 141 133 20 0 -27 -66 -95 -135 l-68 -69 -13 24 c-7
14 -16 41 -19 60 -10 51 -99 290 -108 290 -22 0 8 -164 47 -247 31 -68 32 -80
3 -52 -13 12 -54 37 -93 55 -118 58 -125 44 -26 -55 40 -39 93 -80 124 -96 30
-14 57 -34 59 -43 4 -15 -6 -17 -81 -18 -98 -1 -156 -15 -195 -45 -25 -20 -26
-23 -11 -38 29 -30 179 -17 278 24 15 6 17 1 17 -39 0 -44 -1 -46 -25 -40 -61
15 -292 -60 -281 -91 2 -6 44 -9 103 -8 77 1 112 6 147 22 39 17 46 17 46 5 0
-31 -21 -54 -48 -54 -15 0 -56 -8 -92 -16 -36 -9 -73 -16 -84 -16 -17 1 -17 0
-1 -12 11 -8 15 -18 11 -27 -4 -8 1 -3 12 10 15 19 36 27 98 37 44 6 80 11 81
10 1 -1 0 -12 -3 -23 -8 -28 -77 -52 -162 -55 -35 -1 -66 -6 -68 -10 -7 -11
45 -10 127 3 39 6 73 9 75 6 3 -2 -14 -28 -36 -58 -35 -47 -48 -56 -98 -71
-59 -18 -192 -25 -192 -10 0 5 9 17 21 27 16 15 42 20 127 25 90 5 101 7 69
14 -22 5 -66 6 -99 3 l-60 -5 24 26 c13 14 2 8 -25 -14 -58 -47 -100 -108
-123 -178 -21 -64 -65 -154 -105 -215 l-30 -46 33 36 c38 41 76 114 114 219
33 94 40 103 67 88 21 -11 126 -6 177 9 22 6 19 0 -23 -48 -57 -65 -84 -118
-112 -224 l-22 -80 -37 3 c-28 3 -46 12 -68 38 -17 19 -34 34 -39 34 -5 0 4
-12 20 -27 16 -16 37 -48 45 -73 8 -25 15 -37 16 -27 0 12 8 17 30 17 l29 0
-14 -39 c-21 -60 -41 -93 -72 -124 -29 -27 -30 -27 -66 -12 -34 14 -40 14 -74
-1 -28 -12 -33 -18 -21 -21 14 -4 16 -8 8 -24 -14 -25 -6 -24 37 5 20 14 42
22 51 18 12 -4 10 -8 -10 -14 -17 -6 -32 -22 -41 -46 -8 -20 -24 -46 -36 -56
-12 -11 -21 -24 -21 -29 0 -6 13 2 30 18 30 29 31 29 44 -20 3 -11 3 6 0 37
-5 50 -3 58 15 68 18 9 21 8 21 -8 0 -16 62 -92 75 -92 3 0 5 9 5 20 0 17 4
19 26 14 20 -5 25 -3 22 7 -3 8 -22 15 -46 17 -29 2 -45 9 -52 22 -10 19 -8
19 49 14 52 -6 67 -3 123 23 35 16 91 56 126 87 l62 58 82 -48 c46 -26 128
-69 183 -95 55 -27 95 -48 90 -49 -27 -1 -326 -56 -572 -106 -297 -60 -397
-86 -537 -140 -50 -20 -96 -37 -102 -38 -6 -1 -28 -16 -49 -34 -41 -33 -165
-102 -185 -102 -6 0 -8 6 -4 13 4 6 -4 2 -17 -10 -13 -11 -43 -27 -66 -34 -38
-11 -45 -10 -63 6 -16 15 -23 16 -33 6 -9 -10 -9 -11 4 -6 9 3 22 -1 29 -10
11 -13 9 -21 -16 -48 -24 -27 -25 -28 -3 -9 14 12 29 19 32 15 4 -3 7 0 7 8 0
8 24 -28 54 -79 29 -51 57 -96 61 -100 11 -10 -11 32 -51 99 -41 69 -43 80 -6
48 19 -17 18 -14 -6 12 l-33 36 28 11 c15 6 50 14 77 17 30 4 44 10 37 14 -14
9 56 41 89 41 11 0 20 4 20 9 0 8 173 89 268 125 63 24 289 78 544 131 l227
46 38 -19 c21 -11 99 -55 173 -99 l136 -78 -296 -1 c-297 0 -377 -7 -635 -50
-120 -20 -318 -64 -327 -72 -4 -4 6 -15 23 -24 16 -10 27 -14 24 -9 -8 14 197
60 384 86 213 31 398 45 581 45 l146 0 73 -51 c40 -28 71 -52 69 -53 -2 -2
-52 2 -113 7 -162 14 -712 13 -830 -1 -55 -6 -144 -19 -198 -28 l-98 -17 33
-34 c17 -18 26 -33 19 -33 -11 0 -11 -3 -1 -14 9 -12 5 -16 -27 -21 -54 -9
-62 -13 -30 -14 15 -1 44 6 64 14 l36 15 -24 26 c-18 19 -20 27 -10 33 35 22
368 52 554 50 123 -1 137 -3 131 -18 -3 -9 -9 -26 -12 -39 -4 -23 -46 -51 -57
-40 -3 3 2 22 11 42 23 47 11 58 -24 21 -15 -16 -18 -22 -6 -12 33 27 35 20
12 -29 -17 -33 -27 -44 -40 -41 -9 3 -22 -1 -29 -9 -10 -12 -18 -8 -49 20 -53
48 -139 78 -225 78 -93 0 -167 -32 -240 -106 -61 -61 -70 -81 -29 -66 14 6 71
10 128 10 70 0 126 6 177 20 114 30 203 23 114 -9 -19 -7 -49 -24 -65 -38
l-31 -26 -195 13 c-113 7 -242 10 -305 6 -70 -5 -109 -4 -109 3 0 5 10 12 23
14 19 4 19 4 -5 6 -16 0 -35 12 -49 29 -24 30 -24 30 11 -43 26 -55 39 -160
22 -177 -17 -17 -39 6 -73 75 -17 32 -32 57 -34 55 -3 -2 11 -34 31 -71 19
-37 31 -67 27 -67 -5 0 -34 22 -65 50 -58 51 -112 141 -124 205 l-6 36 -35
-41 c-52 -61 -107 -83 -157 -64 -22 8 -2 34 28 35 18 1 18 2 3 6 -10 3 -28 -3
-39 -14 -19 -17 -20 -17 -39 6 -25 31 -24 82 3 117 l22 29 -25 -22 c-49 -44
-121 -23 -191 57 -73 83 -72 161 3 249 24 28 49 49 55 47 7 -3 10 3 7 15 -3
10 -8 19 -10 19 -3 0 -23 -19 -44 -42 l-39 -43 6 40 c4 22 19 85 33 140 24 92
28 100 48 97 13 -2 56 8 97 22 54 19 95 26 148 26 90 0 119 -13 62 -29 -21 -6
-47 -18 -57 -25 -11 -8 -26 -12 -35 -10 -10 3 -6 -1 7 -9 14 -8 38 -37 53 -63
15 -27 28 -45 28 -40 0 5 -11 28 -25 52 -14 23 -22 49 -19 57 8 21 32 29 52
18 11 -6 26 -5 43 4 20 11 35 12 65 3 45 -12 130 -5 194 17 l45 15 -45 -8
c-73 -11 -205 -8 -231 6 -64 33 -195 30 -307 -7 -35 -12 -67 -19 -73 -16 -14
9 -11 38 7 63 8 12 12 27 9 33 -4 6 19 87 51 181 55 159 59 168 62 127 2 -29
-4 -59 -19 -91 -17 -37 -20 -51 -11 -60 9 -9 12 -6 12 13 0 14 8 41 17 60 l18
34 12 -60 12 -60 -2 48 c-1 26 -1 47 1 47 10 0 39 -39 55 -73 9 -22 20 -37 23
-34 3 3 1 14 -5 25 -17 32 -14 34 30 12 23 -12 43 -19 46 -16 3 3 -6 10 -21
16 -48 18 -115 70 -131 100 -26 50 9 35 50 -20 28 -38 34 -33 9 5 -16 24 -15
25 7 26 15 0 7 5 -21 12 -51 14 -73 44 -66 92 2 17 46 139 98 273 l93 243 7
-88 c3 -48 11 -104 17 -123 6 -19 11 -38 11 -42 0 -12 -34 -14 -64 -5 -25 9
-32 7 -48 -13 -10 -12 -16 -26 -13 -29 4 -3 11 2 16 12 6 9 19 17 29 17 21 0
27 -15 10 -25 -5 -3 -10 -12 -10 -18 0 -7 8 -2 18 9 15 19 62 40 62 27 0 -2
-14 -25 -31 -50 -26 -37 -35 -44 -55 -39 -26 7 -84 -18 -84 -35 0 -5 10 -3 22
5 12 9 33 16 47 16 l24 0 -20 -22 c-30 -34 -43 -63 -43 -98 0 -43 16 -29 23
20 4 29 17 53 44 83 21 23 46 53 56 67 l17 25 -6 -35 c-3 -19 -21 -82 -40
-140 -18 -57 -31 -106 -29 -108 6 -6 11 8 55 146 35 108 37 112 49 86 7 -16
10 -46 6 -73 -4 -33 -2 -40 4 -26 5 11 10 33 10 48 1 28 2 28 49 22 55 -7 39
9 -20 19 -28 5 -39 13 -43 29 -32 142 -32 147 0 117 14 -13 25 -28 25 -33 0
-16 41 -67 63 -79 15 -8 10 2 -15 30 -53 59 -52 75 3 46 17 -8 33 -13 36 -11
2 3 -24 20 -58 39 -76 40 -102 72 -97 119 l4 34 13 -30 c23 -53 27 -59 42 -63
9 -3 7 3 -6 18 l-20 23 23 -6 c29 -7 42 22 43 101 l1 57 15 -35 c10 -24 13
-52 10 -90 -4 -36 -3 -50 3 -40 17 26 11 109 -10 150 -26 51 -25 67 5 132 l25
53 -5 -60 -4 -60 14 69 c17 81 21 87 34 55 8 -19 10 -20 10 -5 1 12 6 16 17
12 9 -3 29 -6 45 -6 27 0 29 -2 29 -42 0 -24 4 -49 9 -56 5 -8 6 8 3 37 -4 44
-2 51 13 51 10 0 27 -7 37 -17 10 -9 18 -11 18 -5 0 20 -43 40 -102 47 -83 10
-90 18 -82 88 6 51 9 57 21 44 8 -8 18 -39 22 -68 6 -43 9 -49 15 -31 4 12 4
31 1 43 -7 20 -6 20 24 5 16 -9 36 -16 43 -16 7 1 0 8 -17 17 -34 18 -105 83
-105 96 0 5 8 3 18 -4 15 -12 15 -12 -1 7 -23 28 -32 85 -19 123 6 17 9 31 7
31 -20 0 -113 -206 -260 -575 -97 -242 -201 -488 -230 -546 -71 -140 -132
-290 -190 -469 -25 -80 -53 -158 -60 -175 l-14 -30 0 50 c-1 30 5 59 14 72 22
32 65 163 65 200 0 17 -4 34 -9 37 -15 10 -41 -70 -40 -122 1 -27 -5 -59 -12
-73 -12 -21 -14 11 -17 246 -3 299 -4 295 63 295 37 0 94 29 113 58 13 20 13
22 -6 22 -11 0 -34 -11 -50 -25 -30 -25 -73 -45 -98 -45 -11 0 -14 15 -14 65
l0 65 63 0 c34 0 77 4 96 10 34 9 81 46 81 62 0 17 -38 7 -62 -17 -33 -33 -64
-42 -125 -37 l-53 4 0 41 c0 23 3 65 6 94 l7 51 56 -1 c45 -2 63 3 93 23 33
22 52 60 31 60 -16 0 -74 -41 -79 -55 -6 -16 -42 -19 -82 -9 -22 6 -23 10 -20
93 l3 86 80 0 c83 1 155 23 184 58 24 29 -29 21 -82 -13 -40 -25 -58 -30 -112
-30 l-65 0 0 94 0 94 71 4 c70 4 72 5 115 50 41 44 56 78 35 78 -5 0 -24 -22
-42 -50 -35 -55 -38 -56 -121 -65 l-58 -7 1 49 c0 26 3 78 8 116 6 60 11 72
47 110 22 23 52 61 67 83 14 23 45 52 68 65 50 28 61 49 26 49 -28 0 -63 -36
-125 -127 -22 -32 -49 -66 -60 -76 -20 -19 -21 -18 -28 29 -4 27 -13 63 -21
81 -14 34 -11 46 52 188 22 49 26 72 19 99 -10 43 -20 30 -33 -46 -7 -40 -24
-100 -38 -134 -23 -53 -29 -60 -49 -56 l-24 4 0 -126 c0 -129 -12 -166 -24
-74 -8 57 -21 88 -38 88 -17 0 0 -79 28 -129 22 -40 24 -54 24 -172 0 -71 -4
-129 -9 -129 -12 0 -28 45 -35 98 -7 44 -31 92 -47 92 -16 0 -9 -36 16 -84 14
-26 25 -53 25 -61 0 -7 11 -27 25 -43 22 -27 25 -39 25 -111 0 -45 -4 -81 -8
-81 -20 0 -52 48 -52 78 0 35 -19 82 -33 82 -26 0 22 -128 62 -164 19 -17 21
-30 21 -123 0 -56 -4 -103 -8 -103 -22 0 -42 39 -42 83 0 47 -13 69 -24 41 -8
-20 -8 -78 0 -98 3 -9 14 -16 24 -16 36 0 50 -32 49 -111 0 -41 -4 -96 -8
-124 -6 -41 -8 -46 -15 -27 -10 30 -40 46 -55 28 -16 -19 -6 -37 34 -66 l34
-25 0 -90 c0 -49 -4 -110 -8 -135 l-7 -45 -27 42 c-28 44 -65 83 -79 83 -24 0
-2 -44 38 -77 69 -57 74 -73 73 -220 -1 -70 -4 -168 -8 -218 l-6 -89 -24 69
c-27 79 -114 280 -173 400 -22 46 -31 70 -19 58 10 -13 22 -23 26 -23 12 0 -7
45 -27 61 -15 12 -19 25 -16 60 l3 44 22 -35 c20 -31 23 -32 23 -12 0 13 -12
35 -26 49 -14 14 -28 41 -31 61 -6 34 -6 35 23 28 28 -7 28 -7 10 13 -11 12
-25 21 -32 21 -7 0 -15 9 -18 20 -3 11 -9 29 -12 40 -8 29 20 25 45 -6 16 -20
21 -23 21 -10 0 20 -47 66 -66 66 -17 0 -20 85 -3 96 6 3 24 -6 40 -22 22 -21
29 -24 29 -12 0 19 -46 58 -67 58 -11 0 -13 8 -8 33 11 48 21 54 55 29 16 -13
30 -18 30 -12 0 15 -38 50 -55 50 -23 0 -18 24 22 97 34 61 37 75 37 140 0 89
-13 108 -43 60 -37 -60 -51 -116 -50 -199 1 -78 -9 -108 -36 -108 -17 0 -55
-48 -55 -69 1 -12 3 -12 12 4 13 25 38 45 55 45 10 0 12 -11 7 -42 -4 -24 -11
-45 -16 -46 -20 -8 -38 -35 -37 -55 0 -19 2 -19 11 6 12 34 38 36 38 3 0 -13
2 -30 5 -38 3 -7 -8 -20 -25 -30 -16 -9 -30 -25 -30 -34 0 -13 4 -11 19 7 24
29 39 19 51 -35 7 -33 6 -36 -16 -36 -12 0 -27 -8 -33 -17 -5 -10 -11 -16 -14
-13 -15 19 -147 282 -147 295 0 23 16 18 39 -12 11 -16 21 -23 21 -17 0 6 -9
23 -20 36 -16 22 -17 28 -6 43 13 18 14 17 29 -11 13 -24 16 -25 17 -9 0 11
-6 29 -14 40 -9 13 -11 28 -5 43 9 23 24 29 34 12 3 -5 12 -10 18 -10 7 0 0
11 -15 25 -23 19 -27 29 -22 54 7 35 8 35 35 21 29 -16 24 6 -6 26 -27 18 -36
61 -10 50 44 -18 49 -16 23 8 -17 15 -28 35 -28 52 0 23 3 26 28 20 l27 -6
-27 23 c-24 19 -27 27 -21 60 7 45 23 47 47 6 10 -17 20 -28 23 -26 6 6 -26
70 -40 78 -5 4 -7 19 -3 33 6 23 9 25 26 16 11 -6 20 -15 20 -20 0 -6 5 -10
10 -10 17 0 11 17 -14 41 -23 22 -23 25 -10 51 8 15 18 28 23 28 13 0 31 -26
41 -57 l8 -28 1 31 c1 18 -8 43 -20 57 -16 21 -18 31 -9 47 15 27 27 25 44 -7
13 -24 15 -25 16 -8 0 11 -6 30 -14 41 -13 18 -12 23 8 49 28 35 50 29 70 -17
l14 -33 1 29 c1 17 -8 39 -20 52 -23 24 -20 54 5 54 8 0 24 -15 36 -32 l22
-33 -7 30 c-4 17 -13 37 -21 46 -18 20 -18 33 2 50 14 11 20 10 40 -14 13 -15
26 -27 29 -27 13 0 3 23 -20 46 -17 17 -24 32 -20 45 9 29 32 22 53 -16 11
-20 11 -20 12 1 0 11 -9 29 -20 39 -26 24 -25 33 5 57 13 10 29 37 36 60 11
42 4 134 -11 143 -11 7 -68 -107 -76 -151 -4 -21 -2 -40 6 -49 22 -26 0 -36
-30 -13 -17 12 -33 18 -37 14 -5 -4 4 -17 20 -28 25 -18 35 -47 21 -61 -4 -3
-19 3 -34 15 -16 11 -33 17 -40 13 -8 -5 -2 -12 19 -21 19 -8 31 -20 31 -32 0
-24 -25 -48 -35 -32 -3 5 -21 10 -38 10 l-32 -1 33 -14 c33 -14 40 -33 21 -52
-7 -7 -19 -8 -38 0 -16 6 -36 7 -47 2 -16 -7 -14 -9 14 -15 45 -10 47 -14 26
-49 -22 -36 -25 -37 -42 -11 -12 20 -52 28 -52 10 0 -5 9 -10 20 -10 28 0 37
-43 15 -76 -15 -24 -18 -24 -34 -10 -19 18 -47 21 -55 7 -3 -5 8 -11 24 -15
33 -6 38 -27 18 -70 -8 -20 -16 -24 -34 -20 -12 3 -31 1 -41 -5 -15 -9 -13
-10 15 -11 21 0 32 -5 32 -14 0 -25 -12 -46 -25 -46 -16 0 -45 -27 -45 -41 0
-6 7 -3 16 5 25 26 37 19 30 -15 -3 -17 -6 -38 -6 -45 0 -8 -10 -14 -24 -14
-13 0 -29 -7 -36 -15 -11 -13 -8 -14 19 -9 29 6 31 5 31 -23 0 -26 -5 -31 -30
-36 -16 -4 -30 -11 -30 -17 0 -7 8 -9 21 -5 13 4 25 2 29 -6 12 -19 0 -39 -24
-39 -22 0 -46 -17 -46 -32 0 -5 9 -4 19 2 35 18 51 12 51 -20 0 -28 -3 -30
-35 -30 -19 0 -35 -4 -35 -10 0 -5 14 -10 31 -10 26 0 30 -3 27 -22 -3 -22 -7
-23 -50 -11 -10 3 -18 0 -18 -6 0 -6 6 -11 14 -11 7 0 19 -7 26 -15 10 -12 10
-18 -1 -31 -11 -14 -14 -13 -26 10 -8 14 -18 26 -23 26 -14 0 -12 -9 5 -26 8
-9 15 -25 15 -36 0 -28 2 -32 -75 117 -38 72 -72 135 -77 142 -6 7 -4 13 4 15
9 3 2 15 -19 35 -38 36 -46 71 -13 53 24 -13 27 2 5 24 -8 8 -15 22 -15 30 0
24 25 19 38 -6 7 -15 11 -18 11 -8 1 9 -6 26 -15 38 -17 24 -11 62 10 62 7 0
18 -12 25 -26 6 -15 14 -24 18 -21 3 4 -3 21 -14 39 -15 26 -17 39 -10 56 13
28 41 28 55 0 l11 -23 0 22 c1 12 -8 28 -19 36 -18 12 -19 18 -9 40 13 28 35
26 44 -4 4 -10 11 -19 16 -19 15 0 10 26 -11 53 -22 28 -26 62 -9 73 7 4 20
-4 30 -17 18 -24 19 -24 19 -2 0 12 -11 30 -25 41 -20 16 -24 25 -19 51 8 38
16 39 43 4 12 -14 24 -23 27 -20 12 11 -6 38 -36 55 -25 14 -30 23 -30 55 0
45 13 47 51 6 24 -26 29 -28 29 -12 0 23 -32 59 -60 68 -14 4 -20 15 -20 36 0
35 17 37 55 7 25 -20 27 -20 23 -2 -2 10 -18 28 -35 39 -34 21 -43 52 -18 61
8 4 27 -1 41 -11 28 -18 40 -15 30 10 -3 8 -19 18 -36 21 -34 7 -40 32 -15 58
16 15 30 14 72 -7 13 -6 25 -8 27 -6 10 10 -13 31 -47 43 -35 12 -36 13 -21
35 14 19 22 21 55 16 45 -8 55 11 12 21 -16 3 -32 7 -38 8 -5 2 6 10 25 18 48
21 100 79 103 113 3 37 -17 42 -60 16z m479 -595 l1 -61 6 50 c5 42 7 46 13
25 13 -43 8 -134 -7 -154 -8 -11 -15 -27 -15 -35 0 -11 4 -10 15 5 14 17 15
11 14 -73 -1 -76 -5 -95 -20 -109 -11 -9 -19 -24 -19 -32 0 -12 3 -12 15 4 13
17 14 10 15 -74 0 -73 -3 -94 -15 -98 -8 -4 -15 -10 -15 -15 0 -4 7 -6 16 -2
15 6 16 -3 9 -83 -4 -49 -12 -97 -17 -108 -7 -14 -7 -17 2 -11 18 11 3 -324
-16 -346 -8 -8 -14 -22 -14 -29 0 -9 5 -7 15 6 13 17 14 15 14 -31 0 -27 -4
-58 -8 -68 -6 -15 -9 -13 -24 17 -14 29 -15 54 -10 150 4 74 10 113 16 109 7
-4 7 0 1 13 -5 10 -10 77 -12 149 l-3 129 20 -18 c19 -17 21 -17 21 -3 0 9 -9
22 -20 29 -17 11 -20 24 -20 96 0 81 1 83 23 78 21 -6 21 -6 -2 6 -22 12 -23
15 -17 93 3 44 6 103 6 130 1 46 2 49 15 31 8 -11 13 -29 10 -40 -4 -18 -3
-18 7 2 9 19 8 27 -10 52 -20 27 -22 41 -22 166 0 120 2 135 15 124 10 -8 16
-33 17 -74z m739 -254 c-12 -21 -35 92 -26 124 7 26 10 21 20 -41 7 -38 10
-76 6 -83z m1149 -49 c10 -35 17 -63 15 -63 -14 0 -86 206 -84 244 1 22 37
-74 69 -181z m-1175 -8 c-3 -17 -18 -62 -35 -100 -26 -61 -29 -82 -30 -167 0
-54 -4 -98 -8 -98 -27 0 -72 89 -72 143 0 39 43 169 48 145 2 -9 -4 -40 -12
-69 -18 -60 -20 -99 -3 -54 l12 30 7 -40 c5 -32 6 -28 4 20 -5 79 4 108 34
116 24 7 24 7 2 8 -41 2 -39 39 11 151 l20 45 13 -50 c8 -27 12 -64 9 -80z
m-1699 1 c16 -6 19 -46 4 -46 -6 0 -26 7 -45 14 -19 8 -35 12 -35 8 0 -10 64
-52 78 -52 7 0 12 -2 12 -4 0 -2 3 -11 6 -20 5 -12 -4 -17 -35 -22 -54 -9 -63
-24 -14 -24 45 0 58 -7 67 -36 5 -18 0 -26 -30 -43 -45 -27 -40 -37 8 -17 34
15 35 14 47 -11 10 -22 9 -29 -9 -48 -26 -28 -28 -55 -2 -32 24 22 29 21 42
-2 7 -15 6 -27 -7 -50 l-18 -30 -33 21 c-31 19 -46 20 -113 6 -11 -2 -46 38
-109 127 -51 72 -117 160 -146 197 -30 37 -54 71 -54 75 0 8 362 -2 386 -11z
m2760 -3 c52 -25 134 -101 134 -123 0 -20 -80 31 -142 90 -35 33 -59 59 -55
60 5 0 33 -12 63 -27z m-2708 -21 c2 -7 -3 -12 -12 -12 -9 0 -16 7 -16 16 0
17 22 14 28 -4z m3123 -21 c-28 -51 -218 -178 -237 -158 -13 13 57 74 145 127
92 55 107 60 92 31z m-3016 -14 c13 -10 16 -21 11 -40 -3 -15 -10 -27 -15 -27
-8 0 -51 64 -51 76 0 9 37 3 55 -9z m-77 -9 c7 -7 12 -15 12 -18 0 -6 -45 -30
-55 -30 -11 0 -4 49 8 53 19 8 22 8 35 -5z m28 -63 c-3 -8 -1 -15 4 -15 12 0
41 -55 34 -63 -12 -12 -32 5 -27 24 7 24 -2 24 -38 -2 -16 -11 -29 -17 -29
-12 0 4 -3 18 -6 30 -5 16 1 25 23 37 36 19 47 20 39 1z m2798 -84 c10 -15
-89 -50 -161 -57 -48 -5 -77 -3 -93 6 -22 12 -22 13 -4 23 53 31 244 51 258
28z m-2797 -9 c8 -5 7 -14 -6 -31 l-19 -24 -11 22 c-18 33 4 53 36 33z m79
-69 c-11 -11 -26 10 -26 35 l1 27 15 -28 c9 -16 13 -31 10 -34z m-48 8 c-15
-5 -19 4 -11 24 6 18 7 18 13 -1 4 -10 3 -21 -2 -23z m-8 -28 c0 -5 -4 -14 -9
-22 -7 -11 -11 -9 -20 8 -10 18 -9 21 9 21 11 0 20 -3 20 -7z m80 -17 c0 -7
-6 -19 -14 -25 -11 -9 -15 -8 -20 5 -10 26 -7 34 14 34 11 0 20 -6 20 -14z
m2689 -15 c11 -7 7 -14 -20 -30 -51 -31 -101 -42 -182 -39 l-72 3 44 23 c70
38 200 62 230 43z m-2658 -40 c5 -12 5 -20 0 -17 -5 3 -14 -1 -21 -9 -16 -19
-30 -19 -30 0 0 8 5 15 11 15 5 0 7 5 4 10 -8 13 4 32 17 28 6 -2 15 -14 19
-27z m-86 1 c0 -18 -20 -15 -23 4 -3 10 1 15 10 12 7 -3 13 -10 13 -16z m-29
-26 c8 -35 -2 -48 -26 -33 -23 14 -25 28 -8 45 18 18 27 15 34 -12z m-147 0
c15 -8 34 -22 41 -31 17 -21 66 -46 105 -55 l30 -7 -27 -11 c-37 -15 -66 -3
-134 55 -68 59 -74 79 -15 49z m93 -29 c25 -18 42 -33 37 -35 -9 -4 -119 66
-119 75 0 9 34 -8 82 -40z m3058 22 c45 -10 130 -57 130 -71 0 -16 -58 -7
-179 28 -69 20 -133 40 -141 45 -21 12 135 11 190 -2z m-2946 -15 c11 -27 7
-37 -9 -24 -16 14 -20 40 -6 40 5 0 12 -7 15 -16z m97 -26 c14 -28 18 -43 10
-46 -7 -2 -6 -10 4 -25 20 -29 19 -37 -5 -37 -25 0 -60 34 -60 58 1 15 2 15
17 -3 15 -19 15 -19 9 -1 -4 12 -1 23 6 28 10 6 8 8 -4 8 -10 0 -18 5 -18 10
0 6 5 10 10 10 6 0 10 7 10 15 0 9 -6 12 -17 9 -15 -5 -16 -4 -3 5 8 6 16 11
17 11 2 0 12 -19 24 -42z m-296 -9 c27 -30 105 -79 127 -79 15 0 18 -8 18 -43
0 -28 12 -67 35 -116 19 -40 35 -79 35 -87 0 -33 31 -8 46 38 8 24 14 17 67
-96 31 -68 62 -150 69 -182 16 -87 20 -93 30 -49 13 56 1 148 -28 230 -55 151
-64 189 -58 233 5 36 9 41 19 30 7 -7 63 -112 125 -232 95 -185 111 -222 102
-237 -17 -27 -15 -46 3 -23 13 16 16 17 25 4 5 -8 8 -21 5 -28 -3 -8 -5 -22
-5 -33 0 -12 -7 -19 -19 -19 -18 0 -37 -27 -26 -38 3 -3 5 0 5 6 0 7 7 12 15
12 23 0 20 -62 -4 -82 -18 -15 -20 -15 -31 13 -7 17 -13 81 -14 147 -1 95 -5
124 -19 145 -10 15 -22 27 -27 27 -62 0 -50 -190 18 -286 48 -67 53 -87 28
-105 -22 -17 -23 -15 -71 80 -76 148 -169 295 -400 626 -137 196 -133 190
-109 177 11 -6 28 -20 39 -33z m179 5 c4 -10 1 -14 -6 -12 -15 5 -23 28 -10
28 5 0 13 -7 16 -16z m2922 -97 c16 -9 42 -28 59 -44 24 -23 26 -28 13 -31
-35 -7 -145 30 -196 65 -62 42 -67 49 -53 67 9 11 24 9 80 -14 37 -15 81 -35
97 -43z m-3476 28 c-12 -13 -27 -22 -31 -19 -10 6 -49 -15 -64 -34 -8 -11 -11
-5 -12 22 -1 34 1 35 45 45 31 6 49 6 53 -1 4 -5 9 -2 13 8 3 9 9 14 13 10 4
-3 -4 -17 -17 -31z m570 -1 c-13 -32 -6 -94 16 -156 20 -57 11 -58 -21 -4 -32
54 -36 132 -10 172 21 32 29 26 15 -12z m43 -69 c3 -44 8 -92 12 -107 4 -16 3
-28 -1 -28 -10 0 -44 133 -44 172 0 35 11 61 20 51 5 -4 10 -44 13 -88z m2790
-19 l44 -17 -18 -67 c-10 -37 -21 -80 -24 -96 -11 -51 -18 -19 -16 76 l1 93
-25 -30 c-14 -16 -25 -34 -25 -38 0 -5 -21 7 -47 25 -27 18 -49 33 -51 34 -2
1 7 22 19 47 l22 45 38 -27 c20 -15 57 -35 82 -45z m-2695 25 c2 0 0 -6 -3
-11 -5 -8 -11 -7 -21 1 -9 7 -14 8 -14 1 0 -6 4 -13 9 -16 5 -3 15 -30 21 -58
7 -29 28 -90 46 -134 18 -45 36 -101 38 -125 l6 -44 -11 40 c-7 22 -42 110
-79 196 l-67 156 36 -2 c20 -1 37 -3 39 -4z m27 -256 c14 -37 25 -69 22 -71
-5 -6 -115 239 -122 272 -6 33 59 -101 100 -201z m2861 114 c-23 -90 -72 -217
-80 -208 -10 10 17 167 36 213 25 60 60 114 65 100 2 -6 -7 -53 -21 -105z
m-114 23 c-2 -33 -11 -98 -20 -143 -17 -82 -17 -84 -55 -98 -33 -12 -40 -12
-48 0 -7 12 -9 12 -9 -1 0 -9 -12 -23 -27 -32 -16 -9 -56 -41 -91 -71 l-64
-55 -32 19 c-18 10 -56 23 -86 29 -29 6 -56 12 -58 15 -7 7 27 134 48 183 18
39 143 182 160 182 4 0 12 -11 18 -25 6 -14 30 -45 52 -69 35 -38 40 -50 41
-92 1 -27 5 -60 9 -74 5 -15 6 3 2 43 -2 37 -2 67 1 67 26 0 37 -16 39 -59 l1
-46 4 43 c5 53 27 56 41 5 9 -35 10 -33 11 36 1 63 22 179 38 204 3 4 10 6 16
4 8 -2 11 -25 9 -65z m88 59 c0 -5 -10 -30 -22 -57 -29 -67 -48 -141 -48 -191
0 -39 -2 -43 -24 -43 -24 0 -24 0 -10 46 7 25 16 76 20 113 3 36 8 75 9 86 2
11 4 28 4 38 1 13 10 17 36 17 19 0 35 -4 35 -9z m-282 -32 c39 -30 92 -110
92 -139 0 -23 -33 -8 -81 37 -52 48 -79 89 -79 118 0 20 32 12 68 -16z m92
-24 c0 -49 -8 -56 -28 -25 -10 17 -9 25 4 45 9 14 18 25 20 25 2 0 4 -20 4
-45z m349 -25 c-28 -86 -80 -200 -90 -200 -35 0 30 183 89 253 23 27 24 15 1
-53z m107 -59 c-24 -60 -83 -151 -97 -151 -12 0 11 82 33 120 23 38 79 102 85
96 2 -2 -7 -31 -21 -65z m-2849 -63 c13 -17 22 -68 12 -68 -4 0 -14 -2 -22 -6
-19 -7 -50 41 -42 66 7 22 37 27 52 8z m-1372 -161 c392 -223 864 -520 1037
-650 62 -47 165 -138 228 -203 63 -65 84 -89 45 -53 -116 107 -235 203 -335
269 -167 110 -793 407 -1234 586 l-179 72 49 31 c27 16 69 43 94 59 l45 29 55
-30 c30 -17 118 -66 195 -110z m1730 59 c14 -29 16 -67 12 -258 -2 -122 -7
-234 -12 -247 -6 -17 -5 -22 3 -17 9 5 12 -13 12 -64 0 -79 11 -85 29 -14 43
171 195 603 208 590 3 -2 -12 -55 -32 -118 -96 -297 -164 -625 -205 -993 -11
-92 -21 -127 -35 -113 -11 11 -11 1268 0 1268 2 0 11 -15 20 -34z m-335 -21
c0 -19 -2 -35 -5 -35 -9 0 -34 57 -28 64 17 17 33 4 33 -29z m2450 -96 c0 -90
-10 -169 -21 -169 -23 0 -30 229 -8 256 20 24 29 -2 29 -87z m196 -35 c7 -87
-2 -169 -16 -144 -13 26 -21 89 -22 176 0 149 26 128 38 -32z m370 111 c45
-18 36 -35 -20 -35 -47 0 -136 27 -136 41 0 15 118 10 156 -6z m-622 -68 c-4
-42 -2 -95 5 -126 12 -59 11 -64 -11 -56 -12 5 -16 27 -16 111 -1 58 -4 109
-7 114 -8 14 3 30 20 30 12 0 14 -14 9 -73z m345 42 c6 -18 11 -75 10 -128 l0
-96 -15 40 c-19 50 -31 215 -16 215 5 0 15 -14 21 -31z m106 -112 c4 -27 5
-51 2 -54 -17 -16 -64 137 -51 166 9 22 41 -49 49 -112z m-490 71 c4 -24 5
-70 3 -103 l-3 -60 -18 37 c-22 48 -24 168 -3 168 10 0 17 -15 21 -42z m-55
-27 c0 -21 5 -52 11 -70 6 -18 9 -35 5 -38 -7 -7 -60 20 -96 49 l-24 19 45 39
c24 22 47 39 52 40 4 0 7 -17 7 -39z m-3835 -64 c409 -173 887 -402 1029 -493
179 -116 437 -352 556 -509 70 -92 170 -250 170 -268 0 -6 -30 30 -66 79 -183
246 -408 455 -654 607 -81 50 -282 148 -395 192 -116 46 -881 317 -995 352
-12 4 -12 7 3 16 84 52 137 88 142 96 7 12 37 2 210 -72z m3599 48 c31 -14 56
-29 56 -34 0 -12 -71 -75 -118 -105 -44 -28 -119 -52 -129 -43 -3 4 3 17 14
30 24 26 55 86 72 140 15 45 28 46 105 12z m-2050 -30 c3 -8 1 -15 -4 -15 -6
0 -10 7 -10 15 0 8 2 15 4 15 2 0 6 -7 10 -15z m6 -44 c0 -5 7 -17 16 -25 13
-14 81 -151 105 -214 8 -21 7 -22 -13 -11 -11 6 -38 9 -59 6 -35 -5 -39 -3
-48 26 -15 41 -15 40 19 35 17 -3 30 -2 30 2 0 13 -25 30 -46 30 -15 0 -23 7
-27 26 -4 25 -3 25 30 19 45 -8 41 13 -5 34 -27 12 -32 20 -32 48 0 23 5 33
15 33 8 0 15 -4 15 -9z m-1889 -56 c16 -9 111 -44 212 -79 100 -35 287 -101
415 -145 298 -104 411 -149 546 -219 100 -51 316 -185 316 -196 0 -3 -44 20
-97 51 -255 148 -554 265 -1280 505 -106 34 -193 66 -193 69 0 5 35 25 48 28
2 1 16 -6 33 -14z m1849 -88 l0 -31 -16 22 c-9 13 -13 30 -10 38 9 24 26 6 26
-29z m-1920 23 c12 -8 9 -10 -13 -10 -16 0 -26 4 -22 10 8 12 16 12 35 0z
m1884 -36 c9 -8 16 -21 16 -27 -1 -14 -28 -52 -34 -46 -15 18 -26 53 -21 69 8
24 18 25 39 4z m-1653 -73 c74 -22 184 -57 244 -79 194 -70 938 -369 985 -396
55 -31 51 -32 -25 -5 -344 122 -877 227 -1368 271 l-259 22 69 64 c37 34 91
76 119 92 28 17 59 39 69 50 10 11 21 20 25 20 4 0 67 -18 141 -39z m1709 -23
c12 -20 16 -34 9 -37 -6 -2 -15 -15 -20 -30 -13 -33 -24 -16 -34 52 -6 40 -5
47 9 47 9 0 25 -15 36 -32z m133 -25 c28 -15 39 -33 75 -121 l43 -103 -20 -42
c-11 -23 -29 -53 -40 -67 -17 -22 -21 -23 -26 -8 -12 30 -2 63 19 60 11 -2 16
1 13 10 -2 7 -16 12 -30 11 -21 -1 -27 4 -32 27 -8 35 1 54 22 46 9 -4 13 -1
10 6 -2 7 -15 12 -29 11 -19 -1 -27 6 -36 31 -17 45 -15 49 13 43 16 -3 24 0
22 7 -2 6 -18 12 -36 14 -24 3 -35 10 -42 29 -22 58 11 78 74 46z m-82 -65 c8
-15 7 -22 -4 -31 -8 -7 -18 -23 -21 -37 l-7 -25 17 23 c23 31 33 28 50 -14 14
-34 14 -37 -5 -51 -12 -8 -21 -24 -20 -36 l0 -22 16 23 c20 29 31 28 43 -4 9
-22 7 -30 -14 -49 l-24 -22 -12 26 c-60 128 -85 223 -64 244 10 9 34 -4 45
-25z m438 -243 c44 -58 84 -85 141 -94 31 -6 35 -10 41 -46 5 -27 16 -47 36
-63 l29 -24 -90 -89 c-49 -49 -95 -89 -102 -89 -17 0 -19 58 -3 113 10 38 26
46 47 25 6 -6 15 -8 19 -4 4 4 -3 16 -17 26 -28 21 -22 32 18 38 14 2 32 8 39
14 19 15 5 30 -17 18 -45 -24 -81 0 -45 30 21 17 19 29 -4 23 -11 -3 -21 1
-24 9 -2 7 -2 3 0 -9 2 -13 0 -23 -4 -23 -20 1 -31 18 -38 57 -4 24 -12 46
-18 50 -7 4 -8 0 -4 -11 4 -10 10 -30 13 -44 5 -25 4 -26 -9 -9 -13 15 -15 16
-21 2 -3 -8 -3 -22 0 -30 4 -8 1 -22 -5 -29 -10 -11 -8 -16 9 -21 20 -6 20 -8
6 -24 -26 -28 -18 -32 19 -10 19 12 35 19 35 16 0 -3 -16 -28 -35 -57 -19 -29
-38 -62 -41 -75 -3 -14 -17 -26 -40 -33 -34 -10 -34 -10 -34 22 0 61 46 396
55 396 1 0 21 -25 44 -55z m1791 5 c0 -15 -24 -64 -35 -72 -23 -17 -37 -8 -31
20 l5 27 -11 -25 c-14 -28 -27 -40 -45 -40 -30 0 3 85 34 92 37 8 83 7 83 -2z
m-2137 -22 c3 -13 9 -45 12 -73 4 -27 9 -58 12 -67 2 -10 0 -18 -4 -18 -5 0
-23 34 -41 76 -24 59 -29 80 -21 90 17 21 36 17 42 -8z m97 9 c0 -7 -11 -28
-25 -47 -30 -40 -34 -19 -5 28 21 34 30 40 30 19z m2084 4 c11 -18 -13 -61
-34 -61 -23 0 -25 9 -8 45 11 25 32 33 42 16z m47 -22 c16 -8 18 -13 8 -25 -6
-8 -22 -14 -35 -14 -22 0 -23 2 -12 25 13 29 13 29 39 14z m-2131 -58 c-6 -11
-20 -25 -31 -32 -19 -10 -20 -9 -9 11 15 29 44 58 48 48 2 -4 -2 -16 -8 -27z
m1485 9 l29 -30 -28 0 c-15 0 -42 10 -59 22 l-31 22 24 7 c14 4 28 7 31 8 3 1
18 -12 34 -29z m75 3 l22 -28 -22 -3 c-15 -3 -33 7 -54 27 l-31 31 32 0 c22 0
38 -8 53 -27z m634 12 c14 -11 16 -15 5 -15 -28 0 -59 12 -53 21 8 13 26 11
48 -6z m-580 -17 c9 -12 16 -17 16 -10 0 17 15 15 34 -4 21 -21 20 -38 -1 -29
-10 4 -27 8 -38 10 -11 1 -23 3 -26 4 -4 0 -14 12 -23 26 -16 24 -15 25 3 25
11 0 27 -10 35 -22z m-201 -10 l31 -22 -29 -8 c-21 -5 -37 -3 -54 9 -23 15
-24 16 -6 29 24 18 21 18 58 -8z m671 -13 c16 -25 16 -25 -13 -25 -31 0 -51
28 -29 42 20 12 24 10 42 -17z m-2060 -170 c5 -138 4 -174 -5 -155 -7 15 -11
72 -10 139 2 93 -1 116 -14 131 -16 17 -16 20 2 43 10 14 19 24 20 23 1 0 4
-82 7 -181z m1996 181 c0 -2 3 -12 6 -21 6 -13 1 -16 -22 -13 -38 4 -47 38
-10 38 14 0 26 -2 26 -4z m180 -5 c0 -15 -32 -22 -46 -10 -11 9 -14 8 -14 -5
0 -19 -21 -21 -38 -4 -21 21 -13 26 43 27 30 0 55 -4 55 -8z m-840 -32 c0 -9
-32 -17 -47 -12 -7 3 -13 11 -13 18 0 7 6 15 13 18 13 4 47 -13 47 -24z m604
16 c4 -12 -1 -15 -27 -14 -17 1 -45 -2 -62 -6 -23 -6 -27 -5 -19 4 6 7 21 13
33 14 11 1 21 5 21 9 0 15 48 8 54 -7z m-2760 -45 c151 -51 305 -122 366 -168
49 -36 170 -153 170 -164 0 -5 -26 9 -57 30 -82 56 -210 118 -311 152 -119 39
-240 59 -414 67 -115 5 -148 9 -148 20 0 7 10 18 23 23 12 5 63 27 112 49 50
22 95 41 101 41 6 0 77 -22 158 -50z m2517 24 l24 -27 -27 18 c-16 9 -28 21
-28 26 0 14 5 11 31 -17z m-161 -9 c-24 -25 -60 -39 -60 -23 0 7 -4 7 -12 0
-7 -5 -23 -13 -35 -16 -28 -9 -30 6 -5 39 14 20 26 23 76 24 l59 0 -23 -24z
m57 8 c2 -6 -8 -13 -22 -15 -27 -6 -32 1 -13 20 14 14 30 11 35 -5z m-177 -1
c0 -13 -38 -46 -56 -48 -11 -2 -13 4 -9 19 6 20 5 21 -8 5 -15 -19 -73 -26
-62 -8 6 10 89 38 118 39 9 1 17 -3 17 -7z m230 -2 c12 -8 9 -10 -12 -10 -16
0 -28 5 -28 10 0 13 20 13 40 0z m-1379 -20 c27 -22 22 -25 -15 -10 -14 5 -26
14 -26 20 0 16 15 12 41 -10z m1004 10 c3 -5 1 -10 -5 -10 -6 0 -9 -4 -6 -9 3
-5 -5 -8 -18 -7 -23 1 -23 2 -9 19 18 19 29 21 38 7z m868 -81 c62 -50 156
-125 210 -167 53 -41 95 -77 92 -80 -2 -3 -40 6 -83 18 -77 22 -80 24 -102 69
-33 68 -75 116 -131 151 -64 39 -185 80 -241 81 -74 1 -12 18 70 18 l73 1 112
-91z m-2172 28 c10 -36 4 -34 -15 4 -10 19 -11 29 -4 27 7 -3 15 -16 19 -31z
m1882 26 c-7 -2 -19 -2 -25 0 -7 3 -2 5 12 5 14 0 19 -2 13 -5z m82 -2 c3 -5
0 -13 -5 -16 -15 -9 -60 3 -60 15 0 13 57 13 65 1z m-4095 -46 c-40 -41 -70
-57 -70 -38 0 16 76 83 94 83 17 0 12 -8 -24 -45z m2840 32 c0 -7 -15 -20 -32
-29 -18 -9 -64 -39 -103 -67 l-70 -52 51 49 c43 41 139 112 151 112 2 0 3 -6
3 -13z m1020 7 c0 -14 -34 -31 -52 -26 -25 6 -23 20 5 25 37 7 47 7 47 1z
m318 -13 c10 -6 7 -12 -12 -24 -20 -14 -30 -15 -51 -5 -25 11 -30 19 -18 31 9
10 65 8 81 -2z m-2064 -51 c7 -41 -8 -21 -18 25 -5 19 -4 26 2 20 5 -5 12 -26
16 -45z m1912 24 c24 -14 50 -34 57 -43 6 -10 27 -28 45 -41 37 -27 41 -40 11
-40 -13 0 -50 29 -95 75 -41 41 -71 75 -68 75 3 0 25 -12 50 -26z m-4331 6 c3
-6 -1 -7 -9 -4 -18 7 -21 14 -7 14 6 0 13 -4 16 -10z m180 -45 c-59 -54 -60
-54 -71 -32 -9 15 -9 26 -2 35 6 7 13 10 16 7 3 -2 10 2 16 11 10 13 58 31 91
33 6 0 -17 -24 -50 -54z m1059 40 c-4 -9 -18 -15 -38 -14 l-31 1 35 13 c19 7
36 14 37 14 1 1 0 -6 -3 -14z m2872 -7 c4 -6 0 -16 -8 -24 -12 -13 -19 -13
-47 -1 l-33 14 21 15 c23 16 56 14 67 -4z m72 -18 c-12 -47 -24 -51 -30 -10
-5 30 7 50 28 50 9 0 9 -10 2 -40z m365 23 l32 -16 -30 -13 c-40 -17 -60 -17
-75 1 -14 17 -14 17 15 33 25 14 21 15 58 -5z m-1363 -49 c0 -7 -22 -20 -48
-28 -56 -19 -184 -95 -224 -134 -15 -14 -30 -23 -33 -20 -9 8 131 129 210 182
64 42 71 45 83 29 6 -9 12 -22 12 -29z m1075 15 c9 -17 15 -34 13 -39 -2 -5
-11 9 -20 30 -20 47 -15 53 7 9z m223 -50 c20 -19 44 -39 52 -44 18 -10 -26
42 -58 68 -42 35 -15 29 42 -9 61 -40 65 -53 22 -69 -25 -8 -32 -4 -99 64 -55
56 -63 68 -34 49 20 -14 54 -41 75 -59z m-335 30 c3 -22 1 -54 -5 -71 l-11
-30 -18 54 c-16 48 -16 54 -2 70 24 26 30 22 36 -23z m58 -12 c-8 -8 -11 -4
-11 14 0 33 14 47 18 19 2 -12 -1 -27 -7 -33z m-2994 12 c-12 -31 -71 -68 -86
-54 -6 7 76 85 89 85 5 0 3 -14 -3 -31z m-996 7 c-9 -11 -6 -12 15 -8 20 4 25
2 19 -8 -4 -7 -7 -50 -6 -95 2 -75 0 -85 -23 -111 l-25 -29 -1 73 c0 59 4 80
21 105 l22 32 -27 -27 c-44 -45 -61 -37 -25 13 11 16 18 29 15 29 -3 0 -22
-24 -42 -54 -31 -47 -70 -76 -103 -76 -3 0 32 38 79 85 77 77 111 107 81 71z
m3840 3 c32 -17 7 -35 -40 -31 -36 4 -40 6 -30 23 11 21 40 25 70 8z m183 -4
c3 -8 1 -15 -4 -15 -6 0 -10 7 -10 15 0 8 2 15 4 15 2 0 6 -7 10 -15z m389 -3
c16 -17 15 -19 -19 -31 -31 -11 -38 -10 -67 8 l-32 20 25 10 c39 15 75 13 93
-7z m-3364 -102 c0 -9 -9 -3 -24 15 -28 34 -30 47 -14 78 11 20 13 17 25 -28
7 -28 13 -57 13 -65z m331 74 c122 -21 265 -66 360 -115 78 -39 159 -88 149
-89 -3 0 -62 27 -130 59 -218 104 -374 141 -590 141 -113 0 -129 2 -129 17 0
14 13 15 123 10 67 -4 165 -14 217 -23z m2517 -62 c4 -35 1 -51 -10 -60 -13
-11 -16 -4 -26 49 -8 47 -8 66 1 76 16 19 27 -2 35 -65z m-224 52 c103 -14 31
-25 -188 -28 -127 -2 -242 -7 -257 -11 -24 -6 -28 -4 -28 13 0 18 8 21 68 27
37 3 74 8 82 10 20 6 263 -3 323 -11z m142 -4 c12 -20 -19 -48 -57 -52 -40 -4
-47 6 -25 34 20 26 70 37 82 18z m185 -15 c0 -19 -5 -25 -21 -25 -15 0 -19 4
-15 16 3 9 6 20 6 25 0 5 7 9 15 9 9 0 15 -9 15 -25z m38 -7 c11 -39 8 -45
-13 -28 -17 14 -21 60 -5 60 5 0 13 -15 18 -32z m424 15 c23 -20 23 -30 1 -36
-14 -4 -13 -5 4 -6 20 -1 55 -41 36 -41 -4 0 -3 -4 3 -8 6 -4 14 -17 18 -29 6
-17 3 -23 -8 -23 -9 0 -16 -5 -16 -11 0 -6 -18 4 -40 21 -40 32 -49 57 -29 77
7 7 5 12 -9 15 -15 4 -18 1 -14 -18 5 -28 -4 -30 -30 -7 -24 21 -24 47 0 38
14 -5 15 -4 4 7 -10 10 -8 15 10 25 31 17 48 16 70 -4z m-4797 -3 c-3 -5 -10
-10 -16 -10 -5 0 -9 5 -9 10 0 6 7 10 16 10 8 0 12 -4 9 -10z m3330 0 c-3 -5
-12 -10 -18 -10 -7 0 -6 4 3 10 19 12 23 12 15 0z m1109 -55 c18 -46 23 -71
17 -87 -8 -21 -9 -20 -19 16 -7 22 -10 42 -7 44 2 2 -5 24 -15 48 -11 24 -15
44 -11 44 5 0 21 -29 35 -65z m29 40 c10 -14 16 -29 12 -34 -3 -5 3 -12 12
-15 19 -6 21 -9 68 -90 l29 -50 -43 24 c-54 31 -55 32 -90 118 -29 73 -23 95
12 47z m67 -29 c0 -18 -3 -17 -20 9 -26 39 -26 53 0 30 11 -10 20 -28 20 -39z
m-345 -31 c6 -52 4 -62 -13 -78 -19 -17 -20 -16 -31 42 -10 53 -10 64 5 86 22
34 31 23 39 -50z m-896 61 c-15 -13 -199 -102 -188 -91 17 17 166 95 181 95 6
0 9 -2 7 -4z m987 -43 c-10 -10 -19 5 -10 18 6 11 8 11 12 0 2 -7 1 -15 -2
-18z m356 -5 c32 -32 33 -33 10 -36 -33 -5 -46 2 -71 37 l-22 31 25 0 c15 0
38 -13 58 -32z m-1828 -57 c-4 -39 -13 -79 -21 -89 -12 -15 -13 -12 -8 23 12
78 27 147 31 142 2 -2 1 -36 -2 -76z m591 69 c3 -6 -2 -13 -12 -16 -99 -34
-238 -95 -296 -131 -61 -36 -67 -38 -37 -12 49 43 141 97 229 136 80 34 106
40 116 23z m935 -18 c0 -21 -7 -32 -25 -40 -28 -13 -32 -2 -15 42 13 36 40 34
40 -2z m-1570 12 c0 -29 -69 -94 -122 -116 -27 -11 -30 7 -6 37 38 49 128 104
128 79z m1255 -6 c4 -4 2 -23 -5 -43 l-12 -37 -57 6 c-272 26 -524 5 -726 -63
-33 -11 -61 -18 -64 -16 -6 7 132 68 210 94 36 12 80 20 97 19 17 -1 39 5 49
14 10 9 50 21 88 26 75 11 409 11 420 0z m74 -26 c-11 -17 -58 -36 -67 -28
-10 10 21 55 40 58 32 5 42 -6 27 -30z m298 -39 c-3 -18 -1 -35 4 -38 12 -8
12 -75 -1 -75 -5 0 -10 4 -10 8 0 5 -11 14 -25 20 -20 9 -25 19 -25 46 0 35
13 55 25 36 3 -5 12 -10 18 -10 7 1 2 9 -10 19 -14 12 -23 30 -23 47 l0 27 26
-24 c21 -19 25 -31 21 -56z m220 9 c46 -59 68 -112 46 -112 -10 0 -53 66 -53
80 0 5 -3 10 -7 10 -11 0 -53 63 -53 78 0 23 15 10 67 -56z m-473 -19 c5 -35
3 -45 -16 -63 -12 -11 -27 -20 -34 -20 -6 0 -14 -7 -18 -15 -4 -12 3 -15 32
-15 20 -1 64 -7 97 -15 l60 -14 -95 5 c-55 3 -98 11 -102 17 -12 19 -9 84 5
99 6 7 20 31 30 53 21 45 30 38 41 -32z m-1177 21 c12 -8 27 -23 33 -34 14
-27 -20 -46 -52 -29 -34 17 -78 61 -78 77 0 17 62 9 97 -14z m-1287 -11 c105
-17 298 -78 393 -123 34 -17 53 -27 42 -24 -209 65 -467 101 -639 89 l-99 -7
8 38 c4 21 9 42 11 46 7 10 172 -1 284 -19z m1080 -16 c-7 -51 -16 -67 -36
-67 -24 0 -16 51 13 82 15 15 27 28 28 28 1 0 -1 -19 -5 -43z m1513 35 c3 -4
3 -19 0 -35 -5 -23 -10 -27 -39 -27 -40 0 -41 3 -13 41 20 28 43 37 52 21z
m449 -37 c18 -20 34 -31 38 -25 6 11 93 -14 118 -33 23 -18 6 -17 -54 3 -32
10 -60 16 -62 11 -1 -4 -17 -6 -35 -4 -29 3 -30 2 -6 -6 60 -20 77 -40 85
-106 0 -5 4 -22 8 -37 5 -16 5 -40 2 -54 l-7 -27 -30 29 c-30 28 -44 89 -15
65 8 -6 19 -25 26 -42 7 -16 15 -28 17 -26 6 6 -39 98 -57 117 -8 8 -26 29
-39 45 -22 28 -22 28 -7 3 9 -16 22 -38 30 -50 8 -13 11 -31 7 -42 -6 -16 -11
-13 -39 25 -35 48 -37 52 -21 80 8 16 4 27 -20 58 -17 22 -31 42 -31 45 0 3
13 6 30 6 21 0 39 -10 62 -35z m-662 -14 c-6 -12 -19 -21 -29 -21 -26 0 -16
39 13 50 25 9 31 -2 16 -29z m270 0 c0 -28 -5 -40 -17 -45 -10 -3 -23 -9 -30
-12 -14 -6 -6 63 10 84 20 25 37 13 37 -27z m-4113 23 c-3 -3 -12 -4 -19 -1
-8 3 -5 6 6 6 11 1 17 -2 13 -5z m4223 -46 c0 -10 -4 -18 -10 -18 -5 0 -10 15
-10 33 0 24 3 28 10 17 5 -8 10 -23 10 -32z m57 -60 c-2 -15 1 -26 7 -25 13 2
31 -76 22 -98 -9 -26 -24 -9 -31 38 -4 23 -11 47 -15 52 -17 23 -27 91 -16
114 10 22 10 22 24 -15 7 -22 11 -51 9 -66z m383 77 c0 -8 -4 -15 -9 -15 -13
0 -22 16 -14 24 11 11 23 6 23 -9z m-307 -38 c18 -8 30 -23 37 -47 17 -59 14
-62 -30 -40 -45 23 -65 49 -75 100 l-7 34 23 -17 c13 -10 36 -23 52 -30z
m-4333 30 c0 -4 -29 -94 -37 -117 -3 -8 -7 -40 -9 -70 -6 -94 -6 -93 -94 -127
-44 -17 -80 -29 -80 -28 0 1 19 31 43 67 23 36 55 87 71 114 l30 49 7 -30 c8
-34 12 -25 9 22 -2 36 33 123 49 123 6 0 11 -1 11 -3z m-44 -16 c-7 -11 -56
-21 -56 -10 0 4 12 10 28 12 15 2 28 5 30 6 2 0 1 -3 -2 -8z m2461 -28 c-3
-10 -5 -4 -5 12 0 17 2 24 5 18 2 -7 2 -21 0 -30z m1362 -15 c-28 -56 -30 -58
-23 -17 7 36 21 59 35 59 5 0 0 -19 -12 -42z m31 3 c0 -20 -28 -56 -37 -47 -5
5 25 66 32 66 3 0 5 -9 5 -19z m275 -28 c-6 -38 -54 -89 -56 -61 -3 40 5 65
28 86 31 29 37 24 28 -25z m65 7 c11 -21 4 -90 -9 -90 -4 0 -17 10 -29 23 -17
18 -20 30 -15 64 5 37 8 41 24 32 10 -5 23 -18 29 -29z m-1645 8 c-3 -13 -8
-36 -11 -51 -2 -15 -10 -40 -18 -55 l-15 -27 -1 24 c0 14 8 34 18 45 17 20 17
20 -13 -1 -67 -45 -112 -35 -69 17 52 61 123 92 109 48z m1178 13 c115 -12 49
-24 -128 -22 -198 2 -329 -12 -480 -54 -49 -13 -91 -22 -93 -20 -6 6 152 52
238 70 151 31 330 41 463 26z m-2024 -40 c100 -22 137 -39 61 -27 -150 23
-226 29 -402 30 -109 0 -198 4 -198 7 0 18 35 21 230 16 167 -4 236 -10 309
-26z m2976 4 l40 -14 -50 6 c-27 3 -54 9 -59 14 -14 13 22 10 69 -6z m-1830
-8 c10 -8 15 -19 11 -25 -17 -28 -121 -21 -121 8 0 26 80 38 110 17z m-1925
-17 c0 -5 -15 -10 -32 -10 -18 0 -44 -3 -58 -6 -17 -5 -22 -3 -15 4 18 18 105
28 105 12z m3465 -13 c32 -18 41 -29 43 -55 4 -36 2 -37 -37 -18 -34 18 -46
33 -55 69 -8 33 -3 33 49 4z m-1709 -49 c16 -32 19 -78 3 -78 -11 0 -42 67
-54 115 l-6 29 21 -19 c12 -11 28 -32 36 -47z m1440 0 c-7 -42 -19 -58 -43
-58 -22 0 -14 50 12 75 33 34 39 31 31 -17z m-2361 3 c66 -12 140 -28 165 -36
l45 -15 -40 5 c-22 3 -82 12 -133 20 -145 22 -328 37 -492 38 -82 1 -150 6
-150 11 0 5 107 6 243 3 186 -3 270 -10 362 -26z m2413 -58 c-13 -49 -12 -48
-32 -18 -12 18 -15 36 -10 67 l7 41 23 -26 c20 -23 21 -31 12 -64z m-1412 2
c15 -37 20 -125 5 -109 -18 19 -40 144 -25 144 3 0 12 -16 20 -35z m1599 -26
c10 -52 -11 -59 -26 -10 -13 43 -5 89 11 61 4 -8 11 -31 15 -51z m43 41 c35
-21 35 -22 26 -69 -7 -33 -11 -36 -32 -22 -14 8 -45 111 -34 111 4 0 22 -9 40
-20z m-1888 -60 c-6 -10 -20 -26 -32 -34 -25 -18 -88 -22 -88 -6 0 17 38 49
67 56 16 3 33 7 38 9 19 5 25 -6 15 -25z m1592 -5 c-2 -19 -7 -35 -11 -35 -4
0 -5 -15 -3 -32 3 -18 2 -30 -2 -27 -10 9 -19 96 -12 114 11 31 32 16 28 -20z
m36 -40 c-14 -31 -28 -16 -28 31 0 42 11 50 27 20 10 -20 11 -31 1 -51z
m-1528 24 c0 -17 -8 -44 -17 -62 l-18 -32 -3 39 c-4 42 15 99 29 90 5 -3 9
-19 9 -35z m359 30 c37 -13 39 -26 7 -40 -29 -14 -89 -4 -106 16 -10 12 -7 15
17 20 25 6 46 12 49 14 1 1 15 -4 33 -10z m2178 -41 l57 -43 -43 -3 c-47 -4
-81 17 -81 49 0 10 -4 21 -10 24 -16 10 -12 28 5 21 8 -3 41 -25 72 -48z
m-777 -20 c0 -7 3 -24 6 -38 l5 -25 -15 25 c-18 29 -20 50 -6 50 6 0 10 -6 10
-12z m34 6 c11 -4 16 -19 16 -48 0 -63 -16 -77 -25 -21 -3 26 -9 54 -12 61 -6
16 -2 17 21 8z m-297 -51 c-3 -10 -5 -4 -5 12 0 17 2 24 5 18 2 -7 2 -21 0
-30z m-1228 -30 c13 -46 14 -83 2 -101 -11 -19 -20 6 -28 80 -7 67 10 80 26
21z m-345 -68 c0 -58 -9 -79 -24 -55 -11 17 -13 113 -3 124 15 15 28 -18 27
-69z m-95 15 c-27 -36 -80 -62 -117 -58 -34 4 -39 29 -10 48 19 11 103 35 141
39 4 1 -2 -12 -14 -29z m608 -12 c33 -14 63 -38 63 -50 0 -4 -15 -8 -34 -8
-33 0 -96 40 -96 61 0 13 34 11 67 -3z m-557 -33 c0 -19 21 -65 31 -65 4 0 13
16 19 35 6 19 16 35 21 35 12 0 11 -5 -2 -49 -7 -23 -22 -43 -40 -54 -16 -9
-37 -30 -46 -46 l-17 -29 -28 49 -29 49 33 45 c33 44 58 58 58 30z m509 -120
c1 -22 -3 -46 -8 -53 -10 -17 -21 32 -21 97 1 45 1 45 15 21 8 -14 14 -43 14
-65z m-204 -1 c32 -30 32 -44 -1 -44 -27 0 -89 53 -80 69 9 14 54 0 81 -25z
m-386 5 c32 -34 40 -139 11 -139 -17 0 -56 133 -44 152 7 12 11 10 33 -13z
m131 6 c0 -14 -30 -62 -49 -79 -43 -39 -33 12 12 62 19 21 37 29 37 17z m-291
-36 c36 -13 37 -16 15 -47 -21 -31 -83 -30 -120 1 -39 34 -27 57 29 57 24 0
58 -5 76 -11z m813 -156 c-9 -15 -11 -12 -17 20 -4 20 -4 45 0 54 6 14 10 10
17 -19 6 -24 6 -43 0 -55z m-474 54 c24 -25 57 -97 44 -97 -11 0 -57 50 -71
77 -23 46 -8 57 27 20z m-306 -48 c24 -13 57 -83 58 -123 0 -25 -2 -27 -16
-16 -18 15 -58 83 -73 123 -12 30 -4 34 31 16z m213 -70 c-20 -43 -45 -59 -45
-28 0 20 23 72 44 98 19 25 20 -27 1 -70z m-320 -19 c11 -17 -16 -51 -52 -67
-40 -16 -83 -10 -83 12 0 16 11 24 65 47 47 20 62 22 70 8z m379 -26 c8 -20 8
-69 0 -61 -10 10 -22 77 -14 77 4 0 11 -7 14 -16z m-269 -138 c70 -74 39 -107
-35 -38 -22 22 -40 46 -40 55 0 29 41 19 75 -17z m-111 -68 c-16 -53 -24 -66
-54 -91 -36 -31 -50 -34 -50 -12 0 27 28 72 62 99 41 32 51 33 42 4z"/>
<path d="M2485 3370 c4 -6 11 -8 16 -5 14 9 11 15 -7 15 -8 0 -12 -5 -9 -10z"/>
<path d="M5990 1725 c14 -16 26 -31 26 -33 1 -2 5 5 8 15 4 9 4 14 0 10 -4 -4
-19 3 -33 15 l-26 23 25 -30z"/>
<path d="M1372 1410 c0 -14 2 -19 5 -12 2 6 2 18 0 25 -3 6 -5 1 -5 -13z"/>
<path d="M4720 4044 l-35 -14 34 5 c34 5 48 12 40 19 -2 2 -20 -3 -39 -10z"/>
<path d="M4661 3804 c0 -11 3 -14 6 -6 3 7 2 16 -1 19 -3 4 -6 -2 -5 -13z"/>
<path d="M4671 3769 c-1 -9 10 -28 23 -42 19 -21 23 -33 19 -69 -3 -26 2 -59
12 -83 8 -22 13 -29 10 -15 -14 64 -17 91 -11 115 l7 26 31 -23 c17 -12 28
-17 24 -10 -4 6 -27 26 -52 43 -25 17 -49 41 -54 52 -6 15 -9 17 -9 6z"/>
<path d="M4612 3710 c0 -14 2 -19 5 -12 2 6 2 18 0 25 -3 6 -5 1 -5 -13z"/>
<path d="M4631 3640 c0 -8 4 -24 9 -35 5 -13 9 -14 9 -5 0 8 -4 24 -9 35 -5
13 -9 14 -9 5z"/>
<path d="M4653 3535 c0 -27 2 -38 4 -22 2 15 2 37 0 50 -2 12 -4 0 -4 -28z"/>
<path d="M2116 3521 c-4 -5 3 -7 14 -4 23 6 26 13 6 13 -8 0 -17 -4 -20 -9z"/>
<path d="M1803 3490 c-35 -11 -55 -52 -42 -86 16 -43 93 -80 179 -86 46 -3 69
-20 70 -50 0 -14 9 -18 38 -18 20 0 47 -3 58 -6 24 -6 36 12 27 45 -4 16 -11
19 -28 15 -18 -4 -24 0 -29 20 -3 13 -15 28 -26 31 -11 3 -20 11 -20 16 0 6 4
7 10 4 5 -3 7 0 4 8 -8 22 -32 16 -27 -7 2 -12 -3 -5 -11 14 -8 19 -15 31 -15
25 -1 -5 -12 3 -26 19 -14 16 -24 31 -22 32 6 6 77 -20 77 -28 0 -4 5 -8 12
-8 6 0 19 -6 28 -12 9 -7 3 -1 -14 14 -52 48 -178 77 -243 58z m58 -32 c24
-30 25 -59 2 -52 -16 5 -16 4 0 -6 18 -11 18 -12 0 -27 -17 -13 -16 -14 10 -8
29 6 97 -13 97 -27 0 -13 -65 -9 -111 7 -57 20 -89 51 -89 86 0 49 58 66 91
27z m24 12 c3 -6 -1 -7 -9 -4 -18 7 -21 14 -7 14 6 0 13 -4 16 -10z m50 -20
c9 -16 13 -30 11 -30 -3 0 -14 14 -26 30 -12 17 -17 30 -11 30 6 0 17 -13 26
-30z"/>
<path d="M2168 3493 c7 -3 16 -2 19 1 4 3 -2 6 -13 5 -11 0 -14 -3 -6 -6z"/>
<path d="M2240 3483 c0 -10 4 -14 8 -8 4 6 11 13 16 18 5 4 2 7 -7 7 -10 0
-17 -8 -17 -17z"/>
<path d="M2270 3448 c-15 -33 -19 -37 -15 -15 8 39 -12 26 -20 -14 -6 -26 -18
-32 -21 -11 -2 16 -17 42 -24 42 -4 0 -5 -12 -2 -27 4 -27 3 -27 -44 17 -27
25 -37 32 -23 15 28 -31 36 -54 55 -154 5 -24 3 -32 -5 -27 -6 4 -8 12 -5 18
5 7 2 8 -5 3 -9 -5 -12 -1 -10 11 1 11 -1 27 -6 37 -4 9 -5 24 -2 32 4 8 2 17
-4 20 -5 4 -7 10 -4 15 3 4 -1 13 -8 18 -19 16 -21 -41 -2 -78 8 -16 15 -38
15 -50 0 -11 5 -20 10 -20 6 0 10 -7 10 -15 0 -22 13 -19 39 9 21 23 21 54 0
41 -12 -8 -11 6 1 25 8 13 10 13 10 -2 0 -11 5 -15 15 -12 11 5 14 2 8 -12 -6
-18 -5 -18 18 1 84 70 104 94 90 107 -10 9 -12 9 -7 1 8 -15 -28 -53 -51 -53
-14 0 -14 3 3 22 10 12 13 18 7 14 -19 -10 -16 19 2 34 12 10 13 15 3 28 -11
13 -9 14 17 8 22 -5 26 -4 15 4 -27 17 -39 11 -60 -32z"/>
<path d="M5415 3421 c-11 -5 10 -6 50 -3 39 2 72 6 74 8 8 8 -105 2 -124 -5z"/>
<path d="M5340 3391 c-19 -11 -43 -28 -54 -40 -19 -21 -69 -121 -60 -121 3 0
16 24 30 53 27 60 41 75 99 105 22 12 36 21 30 21 -5 0 -26 -8 -45 -18z"/>
<path d="M5140 3386 c-8 -8 -43 -24 -77 -34 -50 -16 -69 -18 -102 -9 -31 8
-43 8 -56 -3 -28 -23 -45 -68 -46 -120 -1 -27 -3 -50 -4 -50 -1 0 -32 14 -68
30 -112 50 -185 37 -231 -43 -20 -33 -39 -50 -86 -72 -63 -30 -74 -51 -43 -76
9 -8 33 -50 53 -94 20 -44 50 -92 65 -107 36 -36 24 -35 -36 2 -103 63 -205
73 -293 28 -51 -26 -96 -59 -96 -71 0 -5 15 4 33 19 53 45 105 64 177 64 70 0
111 -15 210 -75 33 -20 79 -38 106 -42 l49 -8 -40 -6 c-37 -6 -38 -6 -8 -8 37
-1 83 14 83 29 0 5 -8 10 -18 10 -41 0 -124 33 -156 61 -23 19 -44 54 -61 98
-14 37 -37 79 -50 91 -14 13 -25 29 -25 35 0 7 32 29 72 49 65 33 76 36 127
30 33 -3 66 -1 81 5 23 11 22 11 -9 6 -42 -6 -131 4 -131 16 0 5 13 23 29 41
26 29 35 33 83 33 39 0 71 -8 118 -31 l66 -31 17 -91 c10 -51 20 -100 22 -110
3 -9 -2 -2 -10 17 -9 18 -23 61 -31 95 -17 67 -35 91 -76 101 -38 10 -37 -13
1 -26 15 -6 34 -22 41 -37 10 -22 59 -159 94 -267 4 -11 -9 9 -29 45 -39 71
-37 45 2 -35 14 -27 21 -45 16 -40 -28 30 -106 153 -139 221 -28 56 -40 72
-42 57 -4 -27 29 -92 77 -153 47 -59 151 -223 151 -238 0 -6 -6 -13 -12 -15
-7 -3 -1 -6 13 -6 26 -1 70 27 136 87 20 17 40 32 45 32 5 0 6 4 3 10 -3 5 13
36 37 67 42 56 198 357 171 331 -7 -8 -39 -68 -72 -133 -62 -127 -191 -316
-227 -333 -19 -9 -23 -7 -27 14 -3 17 -1 21 7 15 8 -7 10 13 7 72 -2 59 -6 76
-12 62 -9 -20 -5 201 5 260 3 17 -1 8 -8 -20 -8 -27 -15 -93 -16 -145 -2 -71
-4 -87 -11 -65 -8 30 -4 -52 6 -120 4 -24 3 -26 -4 -10 -5 11 -10 31 -11 45
l-2 25 -7 -25 c-6 -20 -13 -2 -34 85 -14 61 -29 142 -32 180 -4 39 -9 81 -12
95 -6 25 -6 25 -13 -5 -6 -24 -8 -20 -9 25 -2 94 42 141 101 109 24 -13 130
13 161 40 29 24 44 -3 51 -96 l6 -82 -49 -55 c-27 -30 -55 -65 -61 -78 -10
-21 -9 -21 7 2 10 14 44 53 76 87 52 58 70 82 48 69 -9 -6 -21 50 -21 105 0
20 -8 46 -17 58 -16 19 -20 20 -33 7z m-233 -388 c-3 -8 -6 -5 -6 6 -1 11 2
17 5 13 3 -3 4 -12 1 -19z m-301 -233 c16 -8 22 -15 13 -15 -8 0 -24 7 -35 15
-25 19 -14 19 22 0z"/>
<path d="M5123 3281 c-13 -25 -34 -66 -47 -91 -14 -25 -27 -70 -30 -100 l-6
-55 15 65 c9 36 33 94 56 132 22 37 39 73 37 81 -2 8 -13 -6 -25 -32z"/>
<path d="M2275 3300 c-10 -11 -24 -20 -31 -20 -20 0 -75 -51 -67 -63 4 -6 10
-2 14 12 5 12 27 30 52 40 24 11 47 26 50 35 8 21 4 20 -18 -4z"/>
<path d="M4977 3250 c3 -36 7 -67 9 -69 8 -9 2 95 -6 114 -6 13 -7 -3 -3 -45z"/>
<path d="M5374 3238 l-19 -23 23 19 c12 11 22 21 22 23 0 8 -8 2 -26 -19z"/>
<path d="M2310 3231 c0 -6 5 -13 10 -16 6 -3 10 1 10 9 0 9 -4 16 -10 16 -5 0
-10 -4 -10 -9z"/>
<path d="M2276 3194 c17 -22 28 -49 28 -70 1 -19 2 -34 3 -34 8 0 42 72 47
100 5 28 5 31 -4 18 -14 -23 -31 -23 -63 2 -38 30 -41 24 -11 -16z"/>
<path d="M1991 3213 c27 -4 38 -23 43 -71 4 -31 6 -32 51 -22 35 8 43 6 60
-12 11 -11 14 -17 7 -13 -10 5 -9 -1 2 -24 17 -32 23 -35 50 -25 12 5 14 10 6
19 -14 17 -19 84 -6 82 5 -1 12 6 14 16 2 9 -1 17 -7 17 -6 0 -7 -8 -4 -17 5
-13 -4 -11 -41 11 -26 15 -50 25 -53 22 -4 -3 -1 -6 5 -6 7 0 12 -11 12 -25
l0 -26 -21 20 c-12 11 -35 23 -50 26 -44 10 -36 28 9 21 26 -4 31 -3 17 4 -11
5 -42 8 -70 8 -27 -1 -38 -3 -24 -5z m189 -68 c0 -12 -20 -44 -20 -32 0 13 -2
22 -11 44 -8 21 -7 22 11 11 11 -7 20 -17 20 -23z"/>
<path d="M4926 3205 c3 -11 8 -66 9 -121 1 -56 7 -110 13 -120 9 -16 11 -10
12 31 0 36 3 46 10 35 7 -11 10 -6 10 21 0 45 -24 128 -46 154 -16 20 -16 20
-8 0z"/>
<path d="M1987 3179 c7 -7 15 -10 18 -7 3 3 -2 9 -12 12 -14 6 -15 5 -6 -5z"/>
<path d="M1921 3138 c-1 -15 9 -37 22 -50 12 -13 16 -16 8 -6 -7 9 -17 32 -21
50 -7 31 -8 31 -9 6z"/>
<path d="M5243 3124 c-12 -9 -39 -37 -59 -62 -33 -43 -33 -44 -3 -12 17 19 46
47 63 62 34 30 33 36 -1 12z"/>
<path d="M2447 3123 c-10 -9 -9 -53 1 -53 4 0 32 9 62 19 41 14 57 16 62 8 6
-9 8 -9 8 0 0 14 -31 33 -52 33 -8 0 -23 -7 -34 -16 -18 -15 -18 -15 3 -5 12
6 28 11 35 11 7 -1 0 -7 -17 -14 -35 -15 -68 -9 -61 10 6 15 3 18 -7 7z"/>
<path d="M4780 3115 c0 -13 54 -153 63 -162 13 -13 7 27 -13 80 -20 53 -49
101 -50 82z"/>
<path d="M6388 3043 c-14 -16 -31 -39 -37 -53 -10 -21 -10 -22 1 -6 7 11 26
34 42 53 34 40 30 44 -6 6z"/>
<path d="M2126 3044 c-23 -23 -20 -30 4 -9 11 10 20 20 20 22 0 7 -9 2 -24
-13z"/>
<path d="M2731 2988 c18 -27 36 -48 41 -48 17 0 7 46 -12 58 -14 8 -20 9 -20
1 0 -6 -9 -1 -21 12 -11 13 -6 3 12 -23z"/>
<path d="M2405 2988 l-16 -33 21 24 c11 13 20 27 20 32 0 18 -10 8 -25 -23z"/>
<path d="M2166 3001 c-4 -5 3 -7 14 -4 14 4 20 0 20 -11 0 -9 -6 -16 -12 -16
-10 0 -9 -3 1 -9 11 -7 11 -9 0 -14 -9 -3 -6 -6 7 -6 13 -1 25 8 32 24 9 19 8
23 -2 19 -7 -3 -16 2 -19 10 -7 17 -32 21 -41 7z"/>
<path d="M4641 2984 c14 -16 40 -59 58 -96 28 -58 39 -72 91 -103 33 -20 71
-50 85 -68 41 -52 28 -17 -18 49 -46 66 -155 191 -139 159 5 -11 29 -42 52
-68 23 -26 40 -51 37 -54 -15 -14 -76 50 -107 112 -19 37 -46 75 -60 83 l-25
16 26 -30z"/>
<path d="M5046 2995 c-9 -26 -7 -32 5 -12 6 10 9 21 6 23 -2 3 -7 -2 -11 -11z"/>
<path d="M2253 2938 c2 -28 6 -33 30 -34 24 -1 24 -1 3 3 -18 3 -26 12 -30 34
-6 28 -6 27 -3 -3z"/>
<path d="M5031 2944 c0 -11 3 -14 6 -6 3 7 2 16 -1 19 -3 4 -6 -2 -5 -13z"/>
<path d="M2341 2930 c-13 -11 -19 -20 -13 -20 5 0 20 9 33 20 13 10 20 19 14
19 -5 0 -21 -9 -34 -19z"/>
<path d="M5095 2929 c-4 -6 -5 -12 -2 -15 2 -3 7 2 10 11 7 17 1 20 -8 4z"/>
<path d="M2831 2886 c33 -48 103 -96 138 -96 9 1 0 8 -19 16 -28 12 -32 17
-20 25 12 8 9 9 -10 5 -21 -5 -34 4 -74 47 l-49 52 34 -49z"/>
<path d="M2626 2905 c3 -8 10 -15 15 -15 5 0 9 -7 9 -15 0 -8 9 -15 19 -15 11
0 32 -5 48 -12 55 -22 69 -19 31 7 -21 14 -38 33 -38 42 0 13 -3 13 -16 2 -13
-10 -20 -10 -45 5 -25 15 -28 15 -23 1z"/>
<path d="M4962 2895 c0 -16 2 -22 5 -12 2 9 2 23 0 30 -3 6 -5 -1 -5 -18z"/>
<path d="M4563 2883 c21 -40 36 -51 93 -68 61 -19 74 -18 50 0 -11 8 -33 15
-49 15 -22 0 -41 11 -70 42 -35 36 -37 38 -24 11z"/>
<path d="M6023 2790 c0 -25 2 -35 4 -22 2 12 2 32 0 45 -2 12 -4 2 -4 -23z"/>
<path d="M5193 2795 c-43 -18 -115 -73 -148 -113 -26 -31 -30 -32 -103 -33
-43 -1 -90 -4 -107 -8 -16 -4 18 -6 78 -5 l107 2 43 46 c45 47 53 50 105 40
30 -6 31 -7 18 -33 -8 -14 -26 -37 -41 -51 -15 -14 -40 -53 -55 -87 -30 -66
-39 -73 -60 -48 -7 8 -22 15 -34 15 -11 0 -49 13 -83 30 -35 16 -79 32 -98 35
-109 17 -111 17 -90 25 19 8 19 9 -2 9 -12 1 -24 -3 -28 -8 -6 -11 40 -27 105
-36 25 -4 73 -20 108 -36 34 -16 70 -29 81 -29 22 0 43 -22 33 -36 -4 -5 -26
-18 -49 -28 -23 -10 -44 -25 -47 -32 -7 -18 3 -18 23 0 9 7 31 18 49 24 25 9
32 8 32 -2 0 -19 30 -43 30 -25 1 9 8 5 21 -10 25 -31 38 -18 18 18 -16 27
-16 28 10 24 25 -4 25 -3 -4 10 l-30 15 28 11 c16 6 40 11 55 12 l27 0 -24 10
c-14 5 -37 7 -53 4 -15 -4 -28 -5 -28 -2 0 18 45 100 70 128 17 19 38 46 46
62 17 31 28 33 77 12 20 -8 44 -15 54 -15 28 1 -97 38 -151 45 -42 6 -47 8
-34 21 8 8 36 23 64 34 27 10 42 19 34 19 -8 0 -30 -6 -47 -14z"/>
<path d="M4290 2790 c-41 -10 -130 -47 -130 -54 0 -3 20 3 43 13 62 27 152 44
190 36 17 -4 67 -20 109 -36 43 -16 85 -29 95 -29 16 0 -97 44 -182 71 -35 11
-76 10 -125 -1z"/>
<path d="M5402 2750 c0 -19 2 -27 5 -17 2 9 2 25 0 35 -3 9 -5 1 -5 -18z"/>
<path d="M6031 2727 c-1 -28 29 -127 39 -127 4 0 10 27 12 60 1 33 0 60 -4 60
-5 0 -8 -19 -8 -42 0 -51 -7 -45 -25 19 -7 26 -14 40 -14 30z"/>
<path d="M3140 2631 c-13 -25 -13 -28 3 -34 8 -3 12 6 13 24 1 34 -2 36 -16
10z"/>
<path d="M2830 2621 c0 -6 4 -13 10 -16 6 -3 7 1 4 9 -7 18 -14 21 -14 7z"/>
<path d="M4454 2595 c35 -51 42 -57 23 -19 -9 17 -23 37 -33 44 -9 8 -4 -3 10
-25z"/>
<path d="M4763 2623 c9 -2 23 -2 30 0 6 3 -1 5 -18 5 -16 0 -22 -2 -12 -5z"/>
<path d="M4638 2603 c6 -2 18 -2 25 0 6 3 1 5 -13 5 -14 0 -19 -2 -12 -5z"/>
<path d="M4538 2593 c7 -3 16 -2 19 1 4 3 -2 6 -13 5 -11 0 -14 -3 -6 -6z"/>
<path d="M4207 2557 l-47 -33 38 -17 c31 -15 34 -15 17 -2 -18 15 -19 17 -3
26 24 13 48 39 48 50 0 13 -2 12 -53 -24z"/>
<path d="M2907 2551 c12 -12 27 -21 33 -21 6 0 8 -4 5 -10 -3 -5 0 -7 8 -5 7
3 25 0 40 -8 14 -8 37 -13 49 -11 13 1 36 3 51 3 30 1 29 20 -1 20 -72 1 -105
8 -113 24 -6 9 -15 17 -20 17 -6 0 -7 -4 -4 -10 3 -5 -11 -2 -32 6 l-38 16 22
-21z"/>
<path d="M4071 2538 c1 -25 3 -27 6 -10 3 17 9 22 21 17 9 -4 26 -9 37 -11 12
-3 14 -2 5 2 -8 4 -27 13 -42 21 -28 13 -28 13 -27 -19z"/>
<path d="M3178 2511 c-9 -11 -14 -21 -12 -24 6 -6 115 1 122 8 3 3 -10 5 -29
6 -19 0 -28 3 -21 6 6 2 10 9 6 14 -3 5 -13 5 -24 -1 -12 -7 -20 -6 -22 0 -2
6 -11 2 -20 -9z"/>
<path d="M4081 2484 c0 -11 3 -14 6 -6 3 7 2 16 -1 19 -3 4 -6 -2 -5 -13z"/>
<path d="M4411 2464 c0 -11 3 -14 6 -6 3 7 2 16 -1 19 -3 4 -6 -2 -5 -13z"/>
<path d="M4596 2471 c-4 -5 3 -7 14 -4 23 6 26 13 6 13 -8 0 -17 -4 -20 -9z"/>
<path d="M4703 2473 c9 -2 25 -2 35 0 9 3 1 5 -18 5 -19 0 -27 -2 -17 -5z"/>
<path d="M4554 2438 l-19 -23 23 19 c12 11 22 21 22 23 0 8 -8 2 -26 -19z"/>
<path d="M4813 2433 c9 -2 25 -2 35 0 9 3 1 5 -18 5 -19 0 -27 -2 -17 -5z"/>
<path d="M4886 2433 c5 -5 12 -12 16 -18 4 -6 8 -2 8 8 0 9 -7 17 -17 17 -9 0
-12 -3 -7 -7z"/>
<path d="M4522 2410 c0 -14 2 -19 5 -12 2 6 2 18 0 25 -3 6 -5 1 -5 -13z"/>
<path d="M3090 2403 c0 -13 45 -43 57 -38 8 2 12 1 10 -3 -3 -4 11 -17 29 -29
19 -12 34 -18 34 -14 0 5 19 7 43 5 36 -3 37 -2 12 5 -50 13 -75 31 -75 53 0
17 -2 18 -15 8 -12 -10 -21 -10 -38 -2 -33 16 -57 22 -57 15z"/>
<path d="M4110 2401 c0 -6 4 -13 10 -16 6 -3 7 1 4 9 -7 18 -14 21 -14 7z"/>
<path d="M4185 2297 c79 -40 146 -81 172 -106 23 -23 49 -41 57 -41 17 0 28
88 13 108 -6 8 -6 12 2 12 6 0 11 -6 11 -12 0 -7 17 5 38 27 l37 40 -30 5
c-17 3 -32 2 -33 -2 -2 -5 -7 -6 -12 -3 -13 8 -90 -74 -90 -97 l0 -21 -22 20
c-25 22 -207 116 -248 128 -14 4 34 -22 105 -58z m278 3 c-3 -12 -8 -19 -11
-16 -5 6 5 36 12 36 2 0 2 -9 -1 -20z m-58 -60 c-3 -5 -12 -7 -20 -3 -21 7
-19 13 6 13 11 0 18 -4 14 -10z"/>
<path d="M4871 2333 c-10 -26 -10 -27 4 -9 8 11 15 23 15 28 0 15 -7 8 -19
-19z"/>
<path d="M4533 2333 c9 -2 23 -2 30 0 6 3 -1 5 -18 5 -16 0 -22 -2 -12 -5z"/>
<path d="M4077 2285 c2 -7 -8 -15 -24 -18 -15 -3 -37 -13 -48 -22 -19 -16 -19
-16 4 -4 67 32 75 30 131 -26 l53 -54 -39 -4 c-37 -3 -37 -4 9 -5 27 -1 58 -7
70 -12 21 -10 21 -10 2 2 -11 7 -52 45 -92 84 -39 39 -69 65 -66 59z"/>
<path d="M1715 2173 c22 -3 46 -9 53 -15 7 -6 15 -8 19 -4 3 3 0 6 -8 6 -11 0
-11 2 1 10 10 7 -3 9 -45 8 -46 -1 -51 -2 -20 -5z"/>
<path d="M1590 2160 c-34 -7 -34 -7 -5 -8 17 0 41 4 55 8 33 11 0 11 -50 0z"/>
<path d="M1504 2136 c-17 -13 -17 -14 9 -9 14 3 39 2 54 -2 21 -5 24 -8 12
-16 -18 -11 -7 -11 25 0 16 7 26 6 28 0 2 -5 8 -1 14 9 10 16 7 17 -30 17 -22
0 -53 3 -67 7 -17 5 -33 3 -45 -6z"/>
<path d="M2134 2141 c5 -8 56 -3 56 5 0 2 -14 4 -31 4 -16 0 -28 -4 -25 -9z"/>
<path d="M2065 2130 l-40 -7 35 -1 c19 -1 42 3 50 8 16 11 14 11 -45 0z"/>
<path d="M4280 2116 l24 -14 -24 -5 c-14 -2 11 -4 55 -4 70 -1 74 0 35 7 -25
5 -58 13 -73 19 -39 15 -47 13 -17 -3z"/>
<path d="M4693 2113 c15 -2 37 -2 50 0 12 2 0 4 -28 4 -27 0 -38 -2 -22 -4z"/>
<path d="M1435 2080 c-16 -16 -27 -31 -24 -33 2 -2 17 11 32 30 36 41 31 43
-8 3z"/>
<path d="M4785 2089 c11 -13 22 -26 24 -29 2 -3 0 5 -3 17 -7 21 -5 22 26 17
18 -4 48 -13 67 -20 19 -8 36 -13 38 -10 7 7 -79 37 -126 43 l-46 6 20 -24z"/>
<path d="M1526 2091 c-15 -6 -16 -10 -7 -15 8 -5 20 -2 29 8 17 17 9 19 -22 7z"/>
<path d="M1983 2050 c14 -11 29 -20 34 -20 4 0 0 5 -11 11 -15 9 -16 13 -5 20
10 6 5 9 -15 9 l-29 0 26 -20z"/>
<path d="M2221 2052 c-1 -20 2 -21 20 -12 11 7 26 9 33 7 7 -3 13 1 13 9 0 17
1 16 -31 5 -17 -7 -26 -7 -30 2 -2 7 -5 2 -5 -11z"/>
<path d="M2512 2035 c0 -16 2 -22 5 -12 2 9 2 23 0 30 -3 6 -5 -1 -5 -18z"/>
<path d="M5565 2049 c-4 -6 -5 -12 -2 -15 2 -3 7 2 10 11 7 17 1 20 -8 4z"/>
<path d="M1438 2043 c7 -3 16 -2 19 1 4 3 -2 6 -13 5 -11 0 -14 -3 -6 -6z"/>
<path d="M1540 2037 c0 -10 8 -17 18 -17 9 0 13 4 7 8 -5 4 -13 11 -17 16 -5
5 -8 2 -8 -7z"/>
<path d="M4791 2020 l-10 -30 42 2 c37 1 38 2 9 5 -28 4 -31 7 -26 29 9 34 -2
30 -15 -6z"/>
<path d="M1483 2033 c9 -2 23 -2 30 0 6 3 -1 5 -18 5 -16 0 -22 -2 -12 -5z"/>
<path d="M1086 2001 c12 -12 84 -21 84 -11 0 9 -36 20 -69 20 -15 0 -21 -4
-15 -9z"/>
<path d="M1200 1993 c0 -14 2 -15 9 -4 6 9 18 12 37 7 21 -5 25 -4 14 4 -25
16 -60 12 -60 -7z"/>
<path d="M4380 1990 c-14 -11 -31 -20 -39 -20 -8 0 -11 -3 -7 -7 8 -8 76 26
76 39 0 11 -1 10 -30 -12z"/>
<path d="M4577 1999 c7 -7 15 -10 18 -7 3 3 -2 9 -12 12 -14 6 -15 5 -6 -5z"/>
<path d="M1394 1991 c4 -5 0 -11 -6 -14 -7 -2 -10 -8 -6 -12 4 -4 14 -1 22 8
15 14 12 27 -6 27 -5 0 -7 -4 -4 -9z"/>
<path d="M1438 1983 c7 -3 16 -2 19 1 4 3 -2 6 -13 5 -11 0 -14 -3 -6 -6z"/>
<path d="M4618 1983 c7 -3 16 -2 19 1 4 3 -2 6 -13 5 -11 0 -14 -3 -6 -6z"/>
<path d="M4750 1980 c0 -5 7 -10 16 -10 8 0 12 5 9 10 -3 6 -10 10 -16 10 -5
0 -9 -4 -9 -10z"/>
<path d="M4826 1954 c-11 -8 -16 -14 -10 -14 13 0 39 18 34 24 -3 2 -14 -2
-24 -10z"/>
<path d="M4768 1933 c6 -2 18 -2 25 0 6 3 1 5 -13 5 -14 0 -19 -2 -12 -5z"/>
<path d="M2003 1912 c3 -12 -65 -82 -81 -82 -7 0 -10 -5 -7 -10 4 -6 -14 -32
-39 -58 -25 -26 -64 -68 -87 -95 -33 -37 -46 -46 -63 -41 -20 6 -20 5 -2 -8
17 -14 27 -5 135 112 64 69 127 134 140 145 l24 18 -7 -38 -7 -38 32 7 c17 3
39 6 48 6 9 0 24 14 34 32 10 17 12 27 5 21 -7 -6 -33 -13 -57 -16 l-43 -5 6
29 c5 24 2 29 -14 29 -11 0 -19 -4 -17 -8z"/>
<path d="M1661 1884 c0 -11 3 -14 6 -6 3 7 2 16 -1 19 -3 4 -6 -2 -5 -13z"/>
<path d="M1874 1885 c-3 -8 -4 -20 -1 -27 3 -8 6 -6 6 5 1 10 5 15 11 12 6 -3
7 1 4 9 -8 20 -13 20 -20 1z"/>
<path d="M1819 1859 l-24 -20 30 17 c39 24 40 24 28 24 -6 0 -21 -9 -34 -21z"/>
<path d="M2215 1855 c-22 -8 -35 -14 -30 -15 20 -4 60 2 65 10 3 4 12 10 20
13 32 12 -14 5 -55 -8z"/>
<path d="M1301 1803 c-17 -20 -29 -38 -27 -40 7 -8 35 10 30 19 -3 5 4 20 17
34 12 13 20 24 16 24 -3 0 -19 -17 -36 -37z"/>
<path d="M1829 1823 c-13 -15 -12 -15 9 -4 23 12 28 21 13 21 -5 0 -15 -7 -22
-17z"/>
<path d="M1989 1783 c-30 -75 -54 -125 -64 -131 -6 -4 -16 -20 -23 -37 -11
-26 -11 -28 2 -12 10 14 15 15 19 5 3 -7 6 -3 6 8 1 16 9 23 31 27 16 4 35 4
42 2 14 -5 68 73 68 97 0 9 9 27 21 42 11 14 16 26 11 26 -6 0 -12 -4 -14 -10
-1 -5 -23 -12 -47 -16 -39 -6 -44 -5 -38 9 4 10 4 17 1 17 -2 0 -9 -12 -15
-27z"/>
<path d="M2153 1773 c9 -2 23 -2 30 0 6 3 -1 5 -18 5 -16 0 -22 -2 -12 -5z"/>
<path d="M1315 1729 c-11 -23 -28 -45 -39 -49 -19 -8 -19 -9 -3 -9 18 -1 18
-3 -2 -37 -25 -41 -24 -49 2 -22 9 10 15 18 13 18 -3 0 9 30 25 66 17 36 28
68 26 70 -2 2 -12 -14 -22 -37z"/>
<path d="M1106 1743 c-6 -14 -5 -15 5 -6 7 7 10 15 7 18 -3 3 -9 -2 -12 -12z"/>
<path d="M1181 1743 c0 -6 -4 -20 -7 -30 -5 -14 -4 -15 5 -7 7 7 11 20 8 30
-3 11 -5 14 -6 7z"/>
<path d="M1480 1710 c-6 -11 -8 -20 -6 -20 3 0 10 9 16 20 6 11 8 20 6 20 -3
0 -10 -9 -16 -20z"/>
<path d="M1126 1663 c-25 -25 -51 -63 -43 -63 1 0 20 20 40 45 43 50 44 59 3
18z"/>
<path d="M1210 1649 c0 -5 5 -7 10 -4 6 3 10 8 10 11 0 2 -4 4 -10 4 -5 0 -10
-5 -10 -11z"/>
<path d="M2201 1644 c0 -11 3 -14 6 -6 3 7 2 16 -1 19 -3 4 -6 -2 -5 -13z"/>
<path d="M2261 1624 c0 -11 3 -14 6 -6 3 7 2 16 -1 19 -3 4 -6 -2 -5 -13z"/>
<path d="M1040 1570 c0 -34 5 -38 19 -12 6 12 5 21 -5 30 -12 11 -14 8 -14
-18z"/>
<path d="M1742 1560 c0 -19 2 -27 5 -17 2 9 2 25 0 35 -3 9 -5 1 -5 -18z"/>
<path d="M1234 1563 c-3 -10 -11 -31 -16 -46 -6 -15 -8 -30 -6 -33 3 -3 9 7
12 21 4 14 10 24 14 21 4 -2 7 9 7 25 0 33 -3 37 -11 12z"/>
<path d="M2111 1564 c0 -11 3 -14 6 -6 3 7 2 16 -1 19 -3 4 -6 -2 -5 -13z"/>
<path d="M1866 1561 c-8 -12 4 -41 16 -41 6 0 5 6 -2 15 -6 8 -9 19 -5 25 3 5
4 10 1 10 -3 0 -7 -4 -10 -9z"/>
<path d="M2040 1532 c-8 -9 -20 -31 -26 -48 -9 -25 -8 -31 2 -31 8 0 14 9 14
19 0 11 7 32 15 48 18 34 16 38 -5 12z"/>
<path d="M1171 1524 c0 -11 3 -14 6 -6 3 7 2 16 -1 19 -3 4 -6 -2 -5 -13z"/>
<path d="M1462 1495 c-12 -25 -20 -45 -17 -45 7 0 47 81 43 86 -3 2 -14 -17
-26 -41z"/>
<path d="M2431 1524 c0 -11 3 -14 6 -6 3 7 2 16 -1 19 -3 4 -6 -2 -5 -13z"/>
<path d="M1822 1525 c4 -4 3 -14 -3 -22 -7 -8 -8 -13 -1 -13 15 0 23 28 9 36
-7 4 -9 4 -5 -1z"/>
<path d="M1642 1470 c0 -19 2 -27 5 -17 2 9 2 25 0 35 -3 9 -5 1 -5 -18z"/>
<path d="M1163 1455 c0 -22 2 -30 4 -17 2 12 2 30 0 40 -3 9 -5 -1 -4 -23z"/>
<path d="M1198 1443 c-2 -10 -1 -29 3 -43 6 -20 7 -17 8 18 1 44 -4 54 -11 25z"/>
<path d="M1631 1394 c0 -11 3 -14 6 -6 3 7 2 16 -1 19 -3 4 -6 -2 -5 -13z"/>
<path d="M1935 1310 c-3 -5 -2 -10 3 -10 6 0 8 -10 5 -22 -4 -19 -3 -20 6 -8
6 8 11 23 11 33 0 19 -15 23 -25 7z"/>
<path d="M2387 1313 c-4 -3 -7 -16 -6 -27 0 -19 1 -19 10 3 10 24 8 36 -4 24z"/>
<path d="M2430 1255 c13 -14 26 -25 28 -25 3 0 -5 11 -18 25 -13 14 -26 25
-28 25 -3 0 5 -11 18 -25z"/>
<path d="M2361 1214 c0 -11 3 -14 6 -6 3 7 2 16 -1 19 -3 4 -6 -2 -5 -13z"/>
<path d="M2310 1125 c0 -5 5 -17 10 -25 5 -8 10 -10 10 -5 0 6 -5 17 -10 25
-5 8 -10 11 -10 5z"/>
<path d="M2356 1020 c13 -48 22 -57 29 -28 4 15 5 33 2 40 -3 7 -6 2 -7 -12
l-1 -25 -15 25 -15 25 7 -25z"/>
<path d="M4092 840 c-1 -14 2 -31 7 -39 8 -12 12 -12 25 -2 9 8 16 19 15 25 0
7 -2 6 -6 -1 -9 -23 -32 -14 -36 15 -4 26 -4 26 -5 2z"/>
<path d="M4202 820 c0 -14 2 -19 5 -12 2 6 2 18 0 25 -3 6 -5 1 -5 -13z"/>
<path d="M4231 743 c-7 -8 -10 -17 -7 -20 9 -9 29 13 25 25 -2 6 -10 3 -18 -5z"/>
<path d="M4313 607 c4 -10 7 -24 7 -30 0 -8 3 -8 11 0 9 9 7 16 -7 30 -17 17
-18 17 -11 0z"/>
</g>
</svg>
